<svg xmlns="http://www.w3.org/2000/svg" xmlns:xlink="http://www.w3.org/1999/xlink" version="1.1" width="256" height="256" viewBox="0 0 256 256" xml:space="preserve">
<desc>Created with Fabric.js 1.7.22</desc>
<defs>
</defs>
<g transform="translate(128 128) scale(0.72 0.72)" style="">
	<g style="stroke: none; stroke-width: 0; stroke-dasharray: none; stroke-linecap: butt; stroke-linejoin: miter; stroke-miterlimit: 10; fill: none; fill-rule: nonzero; opacity: 1;" transform="translate(-175.05 -175.05000000000004) scale(3.89 3.89)" >
	<path d="M 88.535 81.465 L 65.846 58.776 c 10.891 -14.351 9.801 -34.954 -3.288 -48.043 C 55.638 3.812 46.435 0 36.646 0 c -9.789 0 -18.992 3.812 -25.913 10.733 S 0 26.857 0 36.646 c 0 9.788 3.812 18.991 10.733 25.912 c 7.144 7.145 16.528 10.717 25.913 10.717 c 7.808 0 15.612 -2.482 22.13 -7.429 l 22.689 22.689 C 82.44 89.512 83.721 90 85 90 s 2.56 -0.488 3.535 -1.465 C 90.488 86.583 90.488 83.417 88.535 81.465 z M 17.805 55.488 C 12.771 50.455 10 43.764 10 36.646 c 0 -7.118 2.771 -13.809 7.805 -18.842 C 22.837 12.771 29.529 10 36.646 10 c 7.117 0 13.809 2.771 18.842 7.805 c 10.389 10.389 10.389 27.294 0 37.684 C 45.098 65.878 28.193 65.876 17.805 55.488 z" style="stroke: none; stroke-width: 1; stroke-dasharray: none; stroke-linecap: butt; stroke-linejoin: miter; stroke-miterlimit: 10; fill: rgb(1,226,253); fill-rule: nonzero; opacity: 1;" transform=" matrix(1 0 0 1 0 0) " stroke-linecap="round" />
</g>
</g>
</svg>