<svg xmlns="http://www.w3.org/2000/svg" xmlns:xlink="http://www.w3.org/1999/xlink" viewBox="0 0 500 500"><defs><clipPath id="freepik--clip-path--inject-31"><path d="M434.36,76.51V358.45a2.83,2.83,0,0,1-2.82,2.83H262.31a2.83,2.83,0,0,1-2.83-2.83V76.51a2.83,2.83,0,0,1,2.83-2.83H309l1.53,5.2h72.88l1.54-5.2h46.64A2.83,2.83,0,0,1,434.36,76.51Z" style="fill:#39EDDA;stroke:#263238;stroke-linecap:round;stroke-linejoin:round;stroke-width:1.1445257663726807px"></path></clipPath><clipPath id="freepik--clip-path-2--inject-31"><rect x="239.46" y="119.11" width="150.31" height="60.2" rx="3.4" style="fill:#fff;stroke:#263238;stroke-linecap:round;stroke-linejoin:round;stroke-width:1.1445257663726807px"></rect></clipPath><clipPath id="freepik--clip-path-3--inject-31"><path d="M389.77,248.7v53.42a3.39,3.39,0,0,1-3.4,3.38H242.86a3.39,3.39,0,0,1-3.4-3.38V248.7a3.4,3.4,0,0,1,3.4-3.39H386.37A3.4,3.4,0,0,1,389.77,248.7Z" style="fill:#fff;stroke:#263238;stroke-linecap:round;stroke-linejoin:round;stroke-width:1.1445257663726807px"></path></clipPath></defs><g id="freepik--background-simple--inject-31"><path d="M67.93,167.09s-27.88,72,11.3,144.5S199.11,422.39,263.7,455.14s131.66,16.8,163.53-36.84-11.84-91.93-11.9-168.42,11.45-96.74-30-161.36-143.06-78.93-219.9-31S67.93,167.09,67.93,167.09Z" style="fill:#fff;opacity:0.7000000000000001"></path><path d="M248.12,26.13C25.63,38.58-22.13,333.68,52.38,423.93c57.83,70.05,160.94,58.49,215.36-10.08C312.56,357.4,385.1,399.1,444.9,338.06,522.81,258.53,497.77,12.16,248.12,26.13Z" style="fill:#39EDDA"></path><path d="M248.12,26.13C25.63,38.58-22.13,333.68,52.38,423.93c57.83,70.05,160.94,58.49,215.36-10.08C312.56,357.4,385.1,399.1,444.9,338.06,522.81,258.53,497.77,12.16,248.12,26.13Z" style="fill:#fff;opacity:0.7000000000000001"></path></g><g id="freepik--Interface--inject-31"><path d="M434.36,76.51V358.45a2.83,2.83,0,0,1-2.82,2.83H262.31a2.83,2.83,0,0,1-2.83-2.83V76.51a2.83,2.83,0,0,1,2.83-2.83H309l1.53,5.2h72.88l1.54-5.2h46.64A2.83,2.83,0,0,1,434.36,76.51Z" style="fill:#39EDDA"></path><g style="clip-path:url(#freepik--clip-path--inject-31)"><path d="M434.36,100.94V358.45a2.83,2.83,0,0,1-2.82,2.83H262.31a2.83,2.83,0,0,1-2.83-2.83V100.94Z" style="fill:#fff;opacity:0.5"></path><g style="opacity:0.2"><path d="M404.69,127.12H259.22v63.27H404.69a3.4,3.4,0,0,0,3.4-3.4V130.52A3.4,3.4,0,0,0,404.69,127.12Z"></path><path d="M389.64,194.59H259.22v66.48H389.64a3.57,3.57,0,0,0,3.57-3.57V198.15A3.56,3.56,0,0,0,389.64,194.59Z"></path><path d="M404.69,259.76H259.22V323H404.69a3.4,3.4,0,0,0,3.4-3.39V263.16A3.4,3.4,0,0,0,404.69,259.76Z"></path><path d="M408.08,329.48v31.8H262.31a2.83,2.83,0,0,1-2.83-2.83V326.08H404.69A3.4,3.4,0,0,1,408.08,329.48Z"></path><path d="M421.74,131v16.26a3.85,3.85,0,0,1-1.92,3.32V361.28H416V150.54a3.85,3.85,0,0,1-1.92-3.32V131a3.85,3.85,0,0,1,7.69,0Z"></path></g></g><path d="M434.36,76.51V358.45a2.83,2.83,0,0,1-2.82,2.83H262.31a2.83,2.83,0,0,1-2.83-2.83V76.51a2.83,2.83,0,0,1,2.83-2.83H309l1.53,5.2h72.88l1.54-5.2h46.64A2.83,2.83,0,0,1,434.36,76.51Z" style="fill:none;stroke:#263238;stroke-linecap:round;stroke-linejoin:round;stroke-width:1.1445257663726807px"></path><line x1="259.48" y1="101.18" x2="434.36" y2="101.18" style="fill:none;stroke:#263238;stroke-linecap:round;stroke-linejoin:round;stroke-width:1.1445257663726807px"></line><rect x="239.46" y="119.11" width="150.31" height="60.2" rx="3.4" style="fill:#fff"></rect><g style="clip-path:url(#freepik--clip-path-2--inject-31)"><rect x="246.76" y="126.12" width="48.88" height="46.17" style="fill:#fff;stroke:#263238;stroke-linecap:round;stroke-linejoin:round;stroke-width:1.1445257663726807px"></rect><path d="M350,130.18H306.26a2,2,0,0,1-2-2h0a2,2,0,0,1,2-2H350a2,2,0,0,1,2,2h0A2,2,0,0,1,350,130.18Z" style="fill:#263238"></path><path d="M324.26,139.14h-18a2,2,0,0,1-2-2h0a2,2,0,0,1,2-2h18a2,2,0,0,1,2,2h0A2,2,0,0,1,324.26,139.14Z" style="fill:#263238"></path><path d="M361.86,161.69a3.52,3.52,0,0,0-4.12,1.5,3.53,3.53,0,0,0-4.1-1.57c-2.38.72-3.22,3.73-1.25,6.51a14.5,14.5,0,0,0,4.91,4l.38.18.37-.17a14.5,14.5,0,0,0,5-3.91C365,165.46,364.23,162.43,361.86,161.69Z" style="fill:#39EDDA;stroke:#263238;stroke-linecap:round;stroke-linejoin:round;stroke-width:1.1445257663726807px"></path><polygon points="378.85 168.64 371.58 168.64 370.84 161.46 379.59 161.46 378.85 168.64" style="fill:#fff;stroke:#263238;stroke-linecap:round;stroke-linejoin:round;stroke-width:1.1445257663726807px"></polygon><line x1="371.1" y1="163.91" x2="379.33" y2="163.91" style="fill:#fff;stroke:#263238;stroke-linecap:round;stroke-linejoin:round;stroke-width:1.1445257663726807px"></line><line x1="371.36" y1="166.19" x2="379.07" y2="166.19" style="fill:#fff;stroke:#263238;stroke-linecap:round;stroke-linejoin:round;stroke-width:1.1445257663726807px"></line><line x1="373.59" y1="161.46" x2="373.77" y2="168.64" style="fill:#fff;stroke:#263238;stroke-linecap:round;stroke-linejoin:round;stroke-width:1.1445257663726807px"></line><line x1="376.84" y1="161.46" x2="376.62" y2="168.64" style="fill:#fff;stroke:#263238;stroke-linecap:round;stroke-linejoin:round;stroke-width:1.1445257663726807px"></line><line x1="379.55" y1="161.44" x2="381.58" y2="160.7" style="fill:#fff;stroke:#263238;stroke-linecap:round;stroke-linejoin:round;stroke-width:1.1445257663726807px"></line><path d="M380.78,172.12a.93.93,0,1,1-.93-.93A.93.93,0,0,1,380.78,172.12Z" style="fill:#fff;stroke:#263238;stroke-linecap:round;stroke-linejoin:round;stroke-width:1.1445257663726807px"></path><path d="M371.3,172.12a.93.93,0,1,1-.93-.93A.93.93,0,0,1,371.3,172.12Z" style="fill:#fff;stroke:#263238;stroke-linecap:round;stroke-linejoin:round;stroke-width:1.1445257663726807px"></path><line x1="370.61" y1="169.91" x2="379.85" y2="169.91" style="fill:#fff;stroke:#263238;stroke-linecap:round;stroke-linejoin:round;stroke-width:1.1445257663726807px"></line><path d="M258,145.91,261,163h20l3.88-17.09s-3.44-3.47-3.3-11.63l-2.44-.86s.72,7-7.9,7-8.9-6.31-8.9-6.31l-2.44.94S261.44,142,258,145.91Z" style="fill:#39EDDA;stroke:#263238;stroke-linecap:round;stroke-linejoin:round;stroke-width:1.1445257663726807px"></path><path d="M277.15,147a25,25,0,0,0-4.58,0l-1.15-2.58-.9,2.67c-2.31.11-4.35.23-4.35.23l3.52,2.24c-.61,1.76-1.2,3.43-1.47,4,0,0,1.75-1.21,3.7-2.59l3.41,2.16-1.56-3.48A22.49,22.49,0,0,0,277.15,147Z" style="fill:#39EDDA;stroke:#263238;stroke-linecap:round;stroke-linejoin:round;stroke-width:1.1445257663726807px"></path><path d="M382.27,168.64H239.46v7.27a3.4,3.4,0,0,0,3.4,3.4H385.55v-7.39A3.28,3.28,0,0,0,382.27,168.64Z" style="opacity:0.2"></path></g><rect x="239.46" y="119.11" width="150.31" height="60.2" rx="3.4" style="fill:none;stroke:#263238;stroke-linecap:round;stroke-linejoin:round;stroke-width:1.1445257663726807px"></rect><path d="M389.77,248.7v53.42a3.39,3.39,0,0,1-3.4,3.38H242.86a3.39,3.39,0,0,1-3.4-3.38V248.7a3.4,3.4,0,0,1,3.4-3.39H386.37A3.4,3.4,0,0,1,389.77,248.7Z" style="fill:#fff"></path><g style="clip-path:url(#freepik--clip-path-3--inject-31)"><rect x="246.76" y="252.32" width="48.88" height="46.17" style="fill:#fff;stroke:#263238;stroke-linecap:round;stroke-linejoin:round;stroke-width:1.1445257663726807px"></rect><path d="M350,256.38H306.26a2,2,0,0,1-2-2h0a2,2,0,0,1,2-2H350a2,2,0,0,1,2,2h0A2,2,0,0,1,350,256.38Z" style="fill:#263238"></path><rect x="304.23" y="261.28" width="22.06" height="4.06" rx="1.77" style="fill:#263238"></rect><path d="M361.86,287.89a3.52,3.52,0,0,0-4.12,1.51,3.52,3.52,0,0,0-4.1-1.57c-2.38.71-3.22,3.73-1.25,6.5a14.38,14.38,0,0,0,4.91,4l.38.19.37-.18a14.5,14.5,0,0,0,5-3.91C365,291.67,364.23,288.64,361.86,287.89Z" style="fill:#39EDDA;stroke:#263238;stroke-linecap:round;stroke-linejoin:round;stroke-width:1.1445257663726807px"></path><polygon points="378.85 294.84 371.58 294.84 370.84 287.67 379.59 287.67 378.85 294.84" style="fill:#fff;stroke:#263238;stroke-linecap:round;stroke-linejoin:round;stroke-width:1.1445257663726807px"></polygon><line x1="371.1" y1="290.11" x2="379.33" y2="290.11" style="fill:none;stroke:#263238;stroke-linecap:round;stroke-linejoin:round;stroke-width:1.1445257663726807px"></line><line x1="371.36" y1="292.39" x2="379.07" y2="292.39" style="fill:none;stroke:#263238;stroke-linecap:round;stroke-linejoin:round;stroke-width:1.1445257663726807px"></line><line x1="373.59" y1="287.67" x2="373.77" y2="294.84" style="fill:none;stroke:#263238;stroke-linecap:round;stroke-linejoin:round;stroke-width:1.1445257663726807px"></line><line x1="376.84" y1="287.67" x2="376.62" y2="294.84" style="fill:none;stroke:#263238;stroke-linecap:round;stroke-linejoin:round;stroke-width:1.1445257663726807px"></line><line x1="379.55" y1="287.64" x2="381.58" y2="286.9" style="fill:none;stroke:#263238;stroke-linecap:round;stroke-linejoin:round;stroke-width:1.1445257663726807px"></line><path d="M380.78,298.32a.93.93,0,1,1-.93-.93A.93.93,0,0,1,380.78,298.32Z" style="fill:#fff;stroke:#263238;stroke-linecap:round;stroke-linejoin:round;stroke-width:1.1445257663726807px"></path><path d="M371.3,298.32a.93.93,0,1,1-.93-.93A.93.93,0,0,1,371.3,298.32Z" style="fill:#fff;stroke:#263238;stroke-linecap:round;stroke-linejoin:round;stroke-width:1.1445257663726807px"></path><line x1="370.61" y1="296.11" x2="379.85" y2="296.11" style="fill:none;stroke:#263238;stroke-linecap:round;stroke-linejoin:round;stroke-width:1.1445257663726807px"></line><path d="M259.28,289.33v1.92h11.49s3.48-4.11,5.42-3.61,1.72,3.61,1.72,3.61h2.91l1-1.92L281,278.77Z" style="fill:#fff;stroke:#263238;stroke-linecap:round;stroke-linejoin:round;stroke-width:1.1445257663726807px"></path><path d="M259.28,289.33h10.83s3.39-3.12,6-4,3.23,4,3.23,4h2.48s2-5.39,2-6-1.94-9.91-1.94-15.94c0,0-6.57-.11-7.43,1,0,0-1.4-2.05-2.27-1.83a29.57,29.57,0,0,1,.54,7.43c-.32,3.23-4.74,8.4-8.94,9.91C261.05,284.83,259.93,285.88,259.28,289.33Z" style="fill:#39EDDA;stroke:#263238;stroke-linecap:round;stroke-linejoin:round;stroke-width:1.1445257663726807px"></path><path d="M274.47,268.33s.21,6.35,0,7.64-5.93,7.65-6.47,7.87" style="fill:none;stroke:#263238;stroke-linecap:round;stroke-linejoin:round;stroke-width:1.1445257663726807px"></path><line x1="272.76" y1="270.78" x2="275.54" y2="270.78" style="fill:none;stroke:#263238;stroke-linecap:round;stroke-linejoin:round;stroke-width:1.1445257663726807px"></line><line x1="272.74" y1="273.93" x2="275.54" y2="273.5" style="fill:none;stroke:#263238;stroke-linecap:round;stroke-linejoin:round;stroke-width:1.1445257663726807px"></line><line x1="271.96" y1="276.08" x2="275.54" y2="276.51" style="fill:none;stroke:#263238;stroke-linecap:round;stroke-linejoin:round;stroke-width:1.1445257663726807px"></line><line x1="270.77" y1="277.9" x2="274.15" y2="278.77" style="fill:none;stroke:#263238;stroke-linecap:round;stroke-linejoin:round;stroke-width:1.1445257663726807px"></line><line x1="269.25" y1="279.8" x2="271.96" y2="281.36" style="fill:none;stroke:#263238;stroke-linecap:round;stroke-linejoin:round;stroke-width:1.1445257663726807px"></line><path d="M263.8,283.84a6.31,6.31,0,0,1,3.34,5.49h-7.86A7,7,0,0,1,263.8,283.84Z" style="fill:#fff;stroke:#263238;stroke-linecap:round;stroke-linejoin:round;stroke-width:1.1445257663726807px"></path><path d="M280.2,281.16a1.36,1.36,0,1,1-1.36-1.36A1.36,1.36,0,0,1,280.2,281.16Z" style="fill:#fff;stroke:#263238;stroke-linecap:round;stroke-linejoin:round;stroke-width:1.1445257663726807px"></path><path d="M385.55,245.31H242.86a3.4,3.4,0,0,0-3.4,3.39V269H382.27a3.28,3.28,0,0,0,3.28-3.28Z" style="opacity:0.2"></path></g><path d="M389.77,248.7v53.42a3.39,3.39,0,0,1-3.4,3.38H242.86a3.39,3.39,0,0,1-3.4-3.38V248.7a3.4,3.4,0,0,1,3.4-3.39H386.37A3.4,3.4,0,0,1,389.77,248.7Z" style="fill:none;stroke:#263238;stroke-linecap:round;stroke-linejoin:round;stroke-width:1.1445257663726807px"></path><rect x="239.46" y="308.41" width="150.31" height="60.2" rx="2.97" style="fill:#fff;stroke:#263238;stroke-linecap:round;stroke-linejoin:round;stroke-width:1.1445257663726807px"></rect><rect x="246.76" y="315.42" width="48.88" height="46.17" style="fill:#fff;stroke:#263238;stroke-linecap:round;stroke-linejoin:round;stroke-width:1.1445257663726807px"></rect><path d="M350,319.49H306.26a2,2,0,0,1-2-2h0a2,2,0,0,1,2-2H350a2,2,0,0,1,2,2h0A2,2,0,0,1,350,319.49Z" style="fill:#263238"></path><path d="M324.26,328.45h-18a2,2,0,0,1-2-2h0a2,2,0,0,1,2-2h18a2,2,0,0,1,2,2h0A2,2,0,0,1,324.26,328.45Z" style="fill:#263238"></path><path d="M361.86,351a3.52,3.52,0,0,0-4.12,1.51,3.52,3.52,0,0,0-4.1-1.57c-2.38.71-3.22,3.73-1.25,6.5a14.38,14.38,0,0,0,4.91,4l.38.19.37-.18a14.26,14.26,0,0,0,5-3.91C365,354.77,364.23,351.74,361.86,351Z" style="fill:#39EDDA;stroke:#263238;stroke-linecap:round;stroke-linejoin:round;stroke-width:1.1445257663726807px"></path><polygon points="378.85 357.94 371.58 357.94 370.84 350.77 379.59 350.77 378.85 357.94" style="fill:#fff;stroke:#263238;stroke-linecap:round;stroke-linejoin:round;stroke-width:1.1445257663726807px"></polygon><line x1="371.1" y1="353.22" x2="379.33" y2="353.22" style="fill:#fff;stroke:#263238;stroke-linecap:round;stroke-linejoin:round;stroke-width:1.1445257663726807px"></line><line x1="371.36" y1="355.49" x2="379.07" y2="355.49" style="fill:#fff;stroke:#263238;stroke-linecap:round;stroke-linejoin:round;stroke-width:1.1445257663726807px"></line><line x1="373.59" y1="350.77" x2="373.77" y2="357.94" style="fill:#fff;stroke:#263238;stroke-linecap:round;stroke-linejoin:round;stroke-width:1.1445257663726807px"></line><line x1="376.84" y1="350.77" x2="376.62" y2="357.94" style="fill:#fff;stroke:#263238;stroke-linecap:round;stroke-linejoin:round;stroke-width:1.1445257663726807px"></line><line x1="379.55" y1="350.74" x2="381.58" y2="350" style="fill:#fff;stroke:#263238;stroke-linecap:round;stroke-linejoin:round;stroke-width:1.1445257663726807px"></line><path d="M380.78,361.42a.93.93,0,1,1-.93-.93A.93.93,0,0,1,380.78,361.42Z" style="fill:#fff;stroke:#263238;stroke-linecap:round;stroke-linejoin:round;stroke-width:1.1445257663726807px"></path><path d="M371.3,361.42a.93.93,0,1,1-.93-.93A.93.93,0,0,1,371.3,361.42Z" style="fill:#fff;stroke:#263238;stroke-linecap:round;stroke-linejoin:round;stroke-width:1.1445257663726807px"></path><line x1="370.61" y1="359.21" x2="379.85" y2="359.21" style="fill:#fff;stroke:#263238;stroke-linecap:round;stroke-linejoin:round;stroke-width:1.1445257663726807px"></line><path d="M275.54,330.15s1.75-9.16,5.93-5.76c7.11,5.76,1.36,22.71,1.36,22.71" style="fill:none;stroke:#263238;stroke-linecap:round;stroke-linejoin:round;stroke-width:1.1445257663726807px"></path><path d="M266.17,330.15s-1.63-6.25-5.55-5.93-7.37,13.11-2.63,24.59" style="fill:none;stroke:#263238;stroke-linecap:round;stroke-linejoin:round;stroke-width:1.1445257663726807px"></path><path d="M267.14,327.19a3.75,3.75,0,0,1,3.46-2.8,3.24,3.24,0,0,1,3.15,2.8" style="fill:none;stroke:#263238;stroke-linecap:round;stroke-linejoin:round;stroke-width:1.1445257663726807px"></path><path d="M262.15,327.27l16.69-.28v3.82s7.37,16.9,5.36,20.59-26.07,4.72-27.07-.66,5.45-19.16,5.45-19.16Z" style="fill:#39EDDA;stroke:#263238;stroke-linecap:round;stroke-linejoin:round;stroke-width:1.1445257663726807px"></path><path d="M262.58,331.58s-.43,6.89,2,8.19,11.71,1.43,12.89-.58,1.36-8.38,1.36-8.38" style="fill:none;stroke:#263238;stroke-linecap:round;stroke-linejoin:round;stroke-width:1.1445257663726807px"></path><path d="M262.55,342.64s5.31,1.43,8,1c0,0-.63,7.9-1.92,7.9s-7.47.25-7.9-1.17.72-6.44.72-6.44" style="fill:none;stroke:#263238;stroke-linecap:round;stroke-linejoin:round;stroke-width:1.1445257663726807px"></path><path d="M280.2,342.64a32.83,32.83,0,0,1-7.44,1.15s-.05,5.77,1,7,6.64.57,7.5-.77-1.05-5.78-1.05-5.78" style="fill:none;stroke:#263238;stroke-linecap:round;stroke-linejoin:round;stroke-width:1.1445257663726807px"></path><path d="M272.3,337.8a1.29,1.29,0,1,1-1.29-1.29A1.28,1.28,0,0,1,272.3,337.8Z" style="fill:none;stroke:#263238;stroke-linecap:round;stroke-linejoin:round;stroke-width:1.1445257663726807px"></path><rect x="189.21" y="171.36" width="191.41" height="76.66" rx="2.97" style="fill:#fff;stroke:#263238;stroke-linecap:round;stroke-linejoin:round;stroke-width:1.1445257663726807px"></rect><rect x="198.5" y="180.29" width="62.24" height="58.8" style="fill:#fff;stroke:#263238;stroke-linecap:round;stroke-linejoin:round;stroke-width:1.1445257663726807px"></rect><rect x="271.68" y="180.29" width="60.87" height="5.17" rx="1.86" style="fill:#263238"></rect><path d="M273.54,191.7h24.37a1.86,1.86,0,0,1,1.86,1.86V195a1.87,1.87,0,0,1-1.87,1.87H273.54a1.87,1.87,0,0,1-1.87-1.87v-1.44A1.86,1.86,0,0,1,273.54,191.7Z" style="fill:#263238"></path><path d="M345.08,225.58a4.5,4.5,0,0,0-5.25,1.92,4.52,4.52,0,0,0-5.23-2c-3,.91-4.1,4.75-1.59,8.29a18.46,18.46,0,0,0,6.25,5.07l.48.23.48-.23a18.12,18.12,0,0,0,6.32-5C349.12,230.39,348.09,226.53,345.08,225.58Z" style="fill:#39EDDA;stroke:#263238;stroke-linecap:round;stroke-linejoin:round;stroke-width:1.1445257663726807px"></path><polygon points="366.71 234.44 357.44 234.44 356.5 225.3 367.65 225.3 366.71 234.44" style="fill:#fff;stroke:#263238;stroke-linecap:round;stroke-linejoin:round;stroke-width:1.1445257663726807px"></polygon><line x1="356.84" y1="228.42" x2="367.32" y2="228.42" style="fill:#fff;stroke:#263238;stroke-linecap:round;stroke-linejoin:round;stroke-width:1.1445257663726807px"></line><line x1="357.17" y1="231.32" x2="366.98" y2="231.32" style="fill:#fff;stroke:#263238;stroke-linecap:round;stroke-linejoin:round;stroke-width:1.1445257663726807px"></line><line x1="360.01" y1="225.3" x2="360.24" y2="234.43" style="fill:#fff;stroke:#263238;stroke-linecap:round;stroke-linejoin:round;stroke-width:1.1445257663726807px"></line><line x1="364.14" y1="225.3" x2="363.87" y2="234.43" style="fill:#fff;stroke:#263238;stroke-linecap:round;stroke-linejoin:round;stroke-width:1.1445257663726807px"></line><line x1="367.6" y1="225.27" x2="370.19" y2="224.33" style="fill:#fff;stroke:#263238;stroke-linecap:round;stroke-linejoin:round;stroke-width:1.1445257663726807px"></line><circle cx="367.98" cy="238.86" r="1.18" style="fill:#fff;stroke:#263238;stroke-linecap:round;stroke-linejoin:round;stroke-width:1.1445257663726807px"></circle><circle cx="355.91" cy="238.86" r="1.18" style="fill:#fff;stroke:#263238;stroke-linecap:round;stroke-linejoin:round;stroke-width:1.1445257663726807px"></circle><line x1="356.22" y1="236.05" x2="367.98" y2="236.05" style="fill:#fff;stroke:#263238;stroke-linecap:round;stroke-linejoin:round;stroke-width:1.1445257663726807px"></line><path d="M219.82,189.06h19.29l.46,4,14.63,28s-1.28,7.11-4.75,4.65-5.31,6.25-10.06,4.09-7.16,2.87-12.54,1.45-7-1-9.77.26-5.12-5.24-7.32-4.83-4.37-3.42-4.37-3.42l13.52-28.53Z" style="fill:#39EDDA;stroke:#263238;stroke-linecap:round;stroke-linejoin:round;stroke-width:1.1445257663726807px"></path><line x1="221.28" y1="193.09" x2="237.19" y2="193.09" style="fill:#39EDDA;stroke:#263238;stroke-linecap:round;stroke-linejoin:round;stroke-width:1.1445257663726807px"></line><path d="M229.89,191a.65.65,0,0,1-1.3,0,.65.65,0,1,1,1.3,0Z" style="fill:#263238"></path><path d="M212.3,223s4.8-12.34,5.56-15.15" style="fill:none;stroke:#263238;stroke-linecap:round;stroke-linejoin:round;stroke-width:1.1445257663726807px"></path><path d="M227.41,219.79c.07-4.81.12-10,.12-10l-.2,10Z" style="fill:#fff;stroke:#263238;stroke-linecap:round;stroke-linejoin:round;stroke-width:1.1445257663726807px"></path><path d="M227.28,222.84l-.1,4.92c.07-.46.13-2.43.17-4.9Z" style="fill:#fff;stroke:#263238;stroke-linecap:round;stroke-linejoin:round;stroke-width:1.1445257663726807px"></path><path d="M240.76,225.43c0-.28-4.46-15.77-4.59-17.62" style="fill:#fff;stroke:#263238;stroke-linecap:round;stroke-linejoin:round;stroke-width:1.1445257663726807px"></path><path d="M243.89,207.8l-1.62-3.9" style="fill:#fff;stroke:#263238;stroke-linecap:round;stroke-linejoin:round;stroke-width:1.1445257663726807px"></path><path d="M249.54,221.45q-2.14-5.16-4.28-10.33" style="fill:#fff;stroke:#263238;stroke-linecap:round;stroke-linejoin:round;stroke-width:1.1445257663726807px"></path><line x1="218.88" y1="205.13" x2="219.78" y2="203.07" style="fill:#fff;stroke:#263238;stroke-linecap:round;stroke-linejoin:round;stroke-width:1.1445257663726807px"></line><path d="M399.58,369.68h0a1.92,1.92,0,0,1-1.92-1.92V125.93a1.92,1.92,0,0,1,1.92-1.92h0a1.92,1.92,0,0,1,1.92,1.92V367.76A1.92,1.92,0,0,1,399.58,369.68Z" style="fill:#263238"></path><path d="M399.58,143.05h0a3.84,3.84,0,0,1-3.85-3.84V123a3.85,3.85,0,0,1,3.85-3.85h0a3.85,3.85,0,0,1,3.85,3.85v16.25A3.85,3.85,0,0,1,399.58,143.05Z" style="fill:#fff;stroke:#263238;stroke-linecap:round;stroke-linejoin:round;stroke-width:1.1445257663726807px"></path><g style="opacity:0.6000000000000001"><path d="M330.36,89.88,329.81,95h-2.07l-1.07-9.62h1.47L329,93l.72-7.58h1.46l.76,7.64.78-7.64H334L332.92,95h-2Z"></path><path d="M334.74,85.39h1.51V95h-1.51Z"></path><path d="M337.16,87.7a2.55,2.55,0,0,1,.56-1.79,2.52,2.52,0,0,1,3.33,0,2.59,2.59,0,0,1,.56,1.79V88h-1.43v-.4a1.08,1.08,0,0,0-.2-.73.72.72,0,0,0-.55-.21.73.73,0,0,0-.56.21,1.08,1.08,0,0,0-.2.73,1.72,1.72,0,0,0,.22.88,3.66,3.66,0,0,0,.55.71c.22.22.46.45.71.67a7,7,0,0,1,.7.74,3.56,3.56,0,0,1,.55.9,3,3,0,0,1,.22,1.2,2.57,2.57,0,0,1-.57,1.79,2.55,2.55,0,0,1-3.36,0,2.57,2.57,0,0,1-.57-1.79v-.59h1.43v.68a1,1,0,0,0,.21.73.88.88,0,0,0,1.14,0,1,1,0,0,0,.21-.73,1.66,1.66,0,0,0-.22-.87,3.31,3.31,0,0,0-.55-.71c-.22-.23-.45-.45-.7-.67a6.21,6.21,0,0,1-.71-.74,3.74,3.74,0,0,1-.55-.91A2.87,2.87,0,0,1,337.16,87.7Z"></path><path d="M344,95h-1.51V85.39H344v4.12h1.72V85.39h1.53V95h-1.53V90.89H344Z"></path><path d="M348.35,85.39h1.51v8.24h2.49V95h-4Z"></path><path d="M353,85.39h1.51V95H353Z"></path><path d="M355.42,87.7a2.59,2.59,0,0,1,.56-1.79,2.53,2.53,0,0,1,3.34,0,2.59,2.59,0,0,1,.56,1.79V88h-1.43v-.4a1.08,1.08,0,0,0-.2-.73.73.73,0,0,0-.56-.21.75.75,0,0,0-.56.21,1.08,1.08,0,0,0-.19.73,1.72,1.72,0,0,0,.22.88,3.6,3.6,0,0,0,.54.71c.23.22.46.45.71.67a7.11,7.11,0,0,1,.71.74,3.87,3.87,0,0,1,.55.9,3,3,0,0,1,.22,1.2,2.57,2.57,0,0,1-.57,1.79,2.57,2.57,0,0,1-3.37,0,2.57,2.57,0,0,1-.57-1.79v-.59h1.43v.68a1,1,0,0,0,.22.73.77.77,0,0,0,.57.21.8.8,0,0,0,.57-.21,1,1,0,0,0,.21-.73,1.66,1.66,0,0,0-.22-.87,3.66,3.66,0,0,0-.55-.71c-.22-.23-.46-.45-.71-.67a7.11,7.11,0,0,1-.71-.74,3.42,3.42,0,0,1-.54-.91A2.87,2.87,0,0,1,355.42,87.7Z"></path><path d="M360.31,85.39H365v1.38h-1.57V95h-1.52V86.77h-1.58Z"></path></g></g><g id="freepik--Bubble--inject-31"><path d="M55.39,109c-.73-20.89,18.92-38.52,43.88-39.39S145.06,85,145.78,105.86c.68,19.24-15.95,35.71-38.09,38.87-1.75,11.42,3.65,16.73,3.65,16.73A29.51,29.51,0,0,1,94.9,145C73.16,143,56.05,127.91,55.39,109Z" style="fill:#fff;stroke:#263238;stroke-linecap:round;stroke-linejoin:round;stroke-width:1.1445257663726807px"></path><path d="M89.13,93.65c6.23-1.78,9.91,2.1,11.55,4.59,1.74-2.42,5.58-6.16,11.73-4.14,6.68,2.2,8.85,10.8,3,18.51-4.18,5.54-10.81,9.26-14.2,10.9-.4.2-.77.36-1.07.5l-1.06-.54c-3.32-1.77-9.8-5.74-13.75-11.44C79.86,104.11,82.37,95.59,89.13,93.65Z" style="fill:#39EDDA"></path></g><g id="freepik--Character--inject-31"><path d="M86,294.54s-29.39,28.63-38.56,48.1-4,18.63,5,24.79c18,12.38,56.51,28.31,56.51,28.31s.76,12.56,7.25,16.76,24.82-19.75,22.15-23.81-21-2.77-21-2.77-9.18-3.67-22.16-14.32a313.52,313.52,0,0,0-29-20.56s16-22.27,24.48-28.35,22.1-14.8,22.1-14.8" style="fill:#fff;stroke:#263238;stroke-linecap:round;stroke-linejoin:round;stroke-width:1.1445257663726807px"></path><path d="M211,459.77c-17.42,5.84-34.11,10.1-48.61,11.22-1.07.08-2.14.15-3.19.2-.19-3.48-.5-10-.85-12a9.23,9.23,0,0,0-2.8-5.17l-6.11,3.25-1.7,13.93c-26.65-.4-43.56-8-43.56-8l2.41-14.54a43.59,43.59,0,0,1-1.61-13.45c.74-27.14,21.41-58.33,21.41-58.33s47.49-33.51,63.22-6.34S211,459.77,211,459.77Z" style="fill:#bfbfbf"></path><path d="M187.57,457.63c-.3,2.71-18,6.35-25.17.06.68.64,6.7,6.4,5.11,8.39s-5.17,0-5.17,0a8.76,8.76,0,0,1,0,4.91c-1.07.08-2.14.15-3.19.2-.19-3.48-.5-10-.85-12a9.23,9.23,0,0,0-2.8-5.17l-6.11,3.25-1.7,13.93c-26.65-.4-43.56-8-43.56-8l2.41-14.54a43.59,43.59,0,0,1-1.61-13.45c2.91,5,8,11.56,15,12.65,11.68,1.79,20.86-6.53,20.86-6.53s-2.71-7.53,0-14.94c0,0-1.3,18.86,21.52,21.47,22.24,2.54,27-2.36,27.21-2.58-.36.51-6,8.74-9.37,9.63C180.18,454.92,187.88,454.92,187.57,457.63Z" style="opacity:0.2"></path><path d="M211,459.77s-5.67-62-21.39-89.22-63.22,6.34-63.22,6.34S98,419.7,106.54,448.68l-2.41,14.52" style="fill:none;stroke:#263238;stroke-linecap:round;stroke-linejoin:round;stroke-width:1.1445257663726807px"></path><path d="M109.69,448.28c11.47,3.92,24.76,2.41,33.51-3" style="fill:none;stroke:#263238;stroke-linecap:round;stroke-linejoin:round;stroke-width:1.1445257663726807px"></path><path d="M144.63,398.17s-8.6,33.05,0,43,33.74,10.67,40.53,9.3,9.05-6.13,9.05-6.13" style="fill:none;stroke:#263238;stroke-linecap:round;stroke-linejoin:round;stroke-width:1.1445257663726807px"></path><path d="M157.54,403s-2.38,16.9.24,25.05l12.36,4.53,10-6.64s-1.11-15.7-.93-22.94C179.24,403,166.76,400.88,157.54,403Z" style="fill:none;stroke:#263238;stroke-linecap:round;stroke-linejoin:round;stroke-width:1.1445257663726807px"></path><path d="M156.55,420.81s7.43-2.81,11.81,3.62c0,0,.74-6.64,10.88-5.43" style="fill:none;stroke:#263238;stroke-linecap:round;stroke-linejoin:round;stroke-width:1.1445257663726807px"></path><path d="M159.12,405.87s15.11-1,20.12,1" style="fill:none;stroke:#263238;stroke-linecap:round;stroke-linejoin:round;stroke-width:1.1445257663726807px"></path><path d="M115.93,405.93S110,421,110.21,428.86l10,4.43L131,426.14s1.76-15.09,3.1-21.51C134.05,404.63,123.87,403.61,115.93,405.93Z" style="fill:none;stroke:#263238;stroke-linecap:round;stroke-linejoin:round;stroke-width:1.1445257663726807px"></path><path d="M111,421.83s7-2.92,9.44,3.14c0,0,2.08-6.47,10.92-5.72" style="fill:none;stroke:#263238;stroke-linecap:round;stroke-linejoin:round;stroke-width:1.1445257663726807px"></path><path d="M116.59,408.26s12.84-1.7,16.84-.27" style="fill:none;stroke:#263238;stroke-linecap:round;stroke-linejoin:round;stroke-width:1.1445257663726807px"></path><path d="M117.92,395.74s13.81-2.47,25.81,6.32a79.31,79.31,0,0,1,49.35-8.87" style="fill:none;stroke:#263238;stroke-linecap:round;stroke-linejoin:round;stroke-width:1.1445257663726807px"></path><path d="M196.61,392.32a307.59,307.59,0,0,1,10.74,68.15" style="fill:none;stroke:#263238;stroke-linecap:round;stroke-linejoin:round;stroke-width:1.1445257663726807px"></path><path d="M127.88,456.12s15.39-5.66,20.15-9.73c0,0,11.16,10.19,26.75,9.73" style="fill:none;stroke:#263238;stroke-linecap:round;stroke-linejoin:round;stroke-width:1.1445257663726807px"></path><path d="M159.15,471.19s.21-11.9-1.61-13.48-2.28-6.45-2.28-6.45" style="fill:none;stroke:#263238;stroke-linecap:round;stroke-linejoin:round;stroke-width:1.1445257663726807px"></path><path d="M155.5,452.87a19.89,19.89,0,0,1-6.11,4.39l-1.7,13.93" style="fill:none;stroke:#263238;stroke-linecap:round;stroke-linejoin:round;stroke-width:1.1445257663726807px"></path><path d="M189.5,278.56c3.23,8.21,34.29,48.93,36.83,60.64s2.29,21.89-12,18.33-20.27-47.06-36.06-70.25" style="fill:#fff;stroke:#263238;stroke-linecap:round;stroke-linejoin:round;stroke-width:1.1445257663726807px"></path><path d="M188.05,283.4a6.35,6.35,0,0,0,1.25-5.87,37.83,37.83,0,0,0-4.18-11.77c-3.07-5-.84-9.84-2.9-9.74s-2.49,4.62-2.49,4.62-4-4.49-6.48-5.82c-1.13-.61-8.22-3.52-8.22-3.52l-7.25.35s-.06,3.43,6.6,3l4.44,3.52s-4.19,1.24-4.41,3.12-2.5,2-2.26,4.55-.94,2.89,1.16,6.14c2.51,3.9,5.07,2.62,5.07,2.62s2.13,11,4.44,13.16c1.18,1.09,3.62,1.26,6.29.7" style="fill:#fff;stroke:#263238;stroke-linecap:round;stroke-linejoin:round;stroke-width:1.1445257663726807px"></path><path d="M164.41,261.33s2.57,5.86,4.09,7.4,4.24-.09,5.28-.22c1.34-.16,2.27,0,2.06-.55-1.14-3-4.39-2.24-4.39-2.24s-1-3.23-2.88-4.55" style="fill:none;stroke:#263238;stroke-linecap:round;stroke-linejoin:round;stroke-width:1.1445257663726807px"></path><path d="M179.73,260.64a16.09,16.09,0,0,0,.44,4.48s-2.2,5.1-1.81,7.51" style="fill:none;stroke:#263238;stroke-linecap:round;stroke-linejoin:round;stroke-width:1.1445257663726807px"></path><path d="M162.15,266.31c1,2.17,3.14,5.1,5,5.55s8.14-1.31,7.64-3.43" style="fill:none;stroke:#263238;stroke-linecap:round;stroke-linejoin:round;stroke-width:1.1445257663726807px"></path><path d="M169.82,262.42s1.32,0,1.32-2.11" style="fill:none;stroke:#263238;stroke-linecap:round;stroke-linejoin:round;stroke-width:1.1445257663726807px"></path><path d="M168.82,258.21s2.6.92,3.78-1.13" style="fill:none;stroke:#263238;stroke-linecap:round;stroke-linejoin:round;stroke-width:1.1445257663726807px"></path><path d="M103.65,199c6.14-21.06,43.78-20.57,52.43-3.69s5.09,13.11,5.6,19.07,5.09,10.33,4.08,20.61-.51,14.19-3.06,16.82-21.23-.31-25.12-2.66C137.58,249.15,93,235.69,103.65,199Z" style="fill:#fff;stroke:#263238;stroke-linecap:round;stroke-linejoin:round;stroke-width:1.1445257663726807px"></path><path d="M116.62,237.85c2.81,5.91,3.73,30.59-2.07,36.45,0,0,15.32,6.62,37.21-1.27,0,0-6.62-8.4-6.62-15.66s8.4-8.27,8.4-8.27" style="fill:#fff;stroke:#263238;stroke-linecap:round;stroke-linejoin:round;stroke-width:1.1445257663726807px"></path><path d="M161.36,209.1c.9.56-1.32,4.87-4.19,6.62h2.09s-1.14,4-2.09,4.36-3.63-9.68-10.12-4.36C147.05,215.72,149.34,201.56,161.36,209.1Z" style="fill:#39EDDA;stroke:#263238;stroke-linecap:round;stroke-linejoin:round;stroke-width:1.1445257663726807px"></path><path d="M142.08,179.19s16.8,2.72,21,13.41-3.44,21.74-9.54,23.12c-9.55,2.16-8.78,12.79-5.35,22.13s9,16,7.51,25.57c0,0-5.93-7-10.13-2.6s-8.93,4.87-18,2.81-8.83,1.15-13,3.8-13.12-5.67-13.89.76-3.24,7.05-3.24,7.05-11.84-7.33-8.4-17.87,6.87-13.14,5.34-22S90.54,211,94,195.31,125.69,172,142.08,179.19Z" style="fill:#39EDDA;stroke:#263238;stroke-linecap:round;stroke-linejoin:round;stroke-width:1.1445257663726807px"></path><path d="M154.94,220.34s-1.4-7.51-2.93-7.51-2.16,5-2.16,5-1.81,2-1.91,6.53,2.93,6.11,2.93,6.11,1.4,4.33,4.07,3.44-2.55-4.33-2.42-15" style="fill:#fff;stroke:#263238;stroke-linecap:round;stroke-linejoin:round;stroke-width:1.1445257663726807px"></path><path d="M155.07,238.89s.57,7.06,5,11.64" style="fill:#fff;stroke:#263238;stroke-linecap:round;stroke-linejoin:round;stroke-width:1.1445257663726807px"></path><path d="M159.51,198.25c-1.87,3.85-5,6.32-8.29,8.9-9.42,7.38-23.44,14.55-23.66,28.37a20.92,20.92,0,0,0,1.68,8.25" style="fill:none;stroke:#263238;stroke-linecap:round;stroke-linejoin:round;stroke-width:1.1445257663726807px"></path><path d="M143.75,247.49c.3,1.78.61,3.57.88,5.36" style="fill:none;stroke:#263238;stroke-linecap:round;stroke-linejoin:round;stroke-width:1.1445257663726807px"></path><path d="M147.94,219.11c-7.25,5.37-6,16.6-4.83,24.38" style="fill:none;stroke:#263238;stroke-linecap:round;stroke-linejoin:round;stroke-width:1.1445257663726807px"></path><path d="M115,209.9c1.93,15.16,4.22,31.18-2.77,45.94" style="fill:none;stroke:#263238;stroke-linecap:round;stroke-linejoin:round;stroke-width:1.1445257663726807px"></path><path d="M140,180.08a28.06,28.06,0,0,0-13.83,2.5c-8.61,4.2-10.48,14.16-11,22.9" style="fill:none;stroke:#263238;stroke-linecap:round;stroke-linejoin:round;stroke-width:1.1445257663726807px"></path><path d="M98.83,255.7a17.42,17.42,0,0,0-.51,5.66" style="fill:none;stroke:#263238;stroke-linecap:round;stroke-linejoin:round;stroke-width:1.1445257663726807px"></path><path d="M98.74,199.46c-.79,9,0,18.12,1.22,27.09.6,4.49,1.28,9,1.9,13.46s-.63,8.23-2,12.35" style="fill:none;stroke:#263238;stroke-linecap:round;stroke-linejoin:round;stroke-width:1.1445257663726807px"></path><path d="M102,186.87c-1.79,2.58-2.37,6-2.82,9.07" style="fill:none;stroke:#263238;stroke-linecap:round;stroke-linejoin:round;stroke-width:1.1445257663726807px"></path><path d="M145,256.44a6,6,0,0,1,6.85.93" style="fill:none;stroke:#263238;stroke-linecap:round;stroke-linejoin:round;stroke-width:1.1445257663726807px"></path><path d="M120.78,257.26c3.82-.59,7.07,1.84,10.53,3,3.87,1.26,6.94.39,10.26-1.79" style="fill:none;stroke:#263238;stroke-linecap:round;stroke-linejoin:round;stroke-width:1.1445257663726807px"></path><path d="M94.6,269c2.13.68,2.63-2.33,3.26-3.7,1.21-2.62,2.07-3.13,4.92-2.48,6.63,1.52,10.82,3,15-3.28" style="fill:none;stroke:#263238;stroke-linecap:round;stroke-linejoin:round;stroke-width:1.1445257663726807px"></path><path d="M91.69,282.84s13.74-10.88,38.56-12.95,41.23-.55,47.34,5.56,16.57,27.46,16.67,37.79c.07,6.5-7.71,24.82-7.71,24.82l11.62,53.21s-33.73-2.57-64.13.11c-15.44,1.35-19.49,4.36-19.49,4.36s6.54-23.09,7.68-28.74S86,302.84,91.69,282.84Z" style="fill:#263238"></path><path d="M226.91,353.4c-2.36,12.27-6.69,9.73-14.83,5.91s-21.92-17.56-37.3-37.42l17.65-22.09s13.79,19.55,19.65,25.91,9.16,16,9.16,16" style="fill:#fff;stroke:#263238;stroke-linecap:round;stroke-linejoin:round;stroke-width:1.1445257663726807px"></path><path d="M153.54,269.39s14.86-1.54,22.33,4.65,16,21.81,20.74,29c0,0-9.92,18.36-21.53,21.42,0,0-5-8.15-9.18-10.69s-8.12-8.66-8.12-8.66" style="fill:#263238"></path><path d="M102.22,276.9c-12.44,3.89-24.66,23.36-31.91,29.85,0,0,5.09,14.23,20.28,19.45,0,0,7.65-6.47,11.63-4.94S102.22,276.9,102.22,276.9Z" style="fill:#263238"></path><path d="M160,189.44c.08,1.72.19,3.44.14,5.16" style="fill:none;stroke:#263238;stroke-linecap:round;stroke-linejoin:round;stroke-width:1.1445257663726807px"></path><path d="M66.11,351s-4.11,5.7-10.45,5.47" style="fill:none;stroke:#263238;stroke-linecap:round;stroke-linejoin:round;stroke-width:1.1445257663726807px"></path><path d="M174.78,321.89s-5.94-10.85-8.88-10.66-8.44-19.22,2.92-32.67" style="fill:none;stroke:#fff;stroke-linecap:round;stroke-linejoin:round;stroke-width:1.1445257663726807px"></path><path d="M112.26,275.24s7,5.68,32.82-2.61" style="fill:none;stroke:#fff;stroke-linecap:round;stroke-linejoin:round;stroke-width:1.1445257663726807px"></path><path d="M112.26,286.78s19.22-.44,28.55-8.22" style="fill:none;stroke:#fff;stroke-linecap:round;stroke-linejoin:round;stroke-width:1.1445257663726807px"></path><path d="M90.56,290.71S88.62,312.6,102,318.41" style="fill:none;stroke:#fff;stroke-linecap:round;stroke-linejoin:round;stroke-width:1.1445257663726807px"></path><path d="M87.15,311.23s3,7.71,13.08,7.18" style="fill:none;stroke:#fff;stroke-linecap:round;stroke-linejoin:round;stroke-width:1.1445257663726807px"></path><path d="M155.5,303.08s1.33,9.13,13.68,10.45" style="fill:none;stroke:#fff;stroke-linecap:round;stroke-linejoin:round;stroke-width:1.1445257663726807px"></path><path d="M126.34,362.45s30.32-5.64,35.21-15.29" style="fill:none;stroke:#fff;stroke-linecap:round;stroke-linejoin:round;stroke-width:1.1445257663726807px"></path><path d="M133.43,370.4s10.76,14.49,28.53,11.17" style="fill:none;stroke:#fff;stroke-linecap:round;stroke-linejoin:round;stroke-width:1.1445257663726807px"></path></g></svg>