<svg xmlns="http://www.w3.org/2000/svg" xmlns:xlink="http://www.w3.org/1999/xlink" viewBox="0 0 500 500"><defs><clipPath id="freepik--clip-path--inject-121"><path d="M139.31,424.09l-8.32,4.8a2.48,2.48,0,0,1-2.25,0l-10.16-5.78a.69.69,0,0,1,0-1.3L126.9,417a2.56,2.56,0,0,1,2.26,0c2.75,1.59,7.39,4.2,10.15,5.79A.69.69,0,0,1,139.31,424.09Z" style="fill:#15C9C7"></path></clipPath></defs><g id="freepik--Floor--inject-121"><ellipse id="freepik--floor--inject-121" cx="250" cy="323.67" rx="236.19" ry="136.36" style="fill:#f5f5f5"></ellipse></g><g id="freepik--Shadows--inject-121"><path id="freepik--Shadow--inject-121" d="M215.29,428.67,427.71,306c2.51-1.44,2.51-3.79,0-5.24L283.45,217.5a10,10,0,0,0-9.09,0L62,340.14c-2.51,1.45-2.51,3.79,0,5.24l144.26,83.29A10,10,0,0,0,215.29,428.67Z" style="fill:#e6e6e6"></path><path id="freepik--shadow--inject-121" d="M167.79,423.06a.19.19,0,0,0,.07-.06c1.86-1.11,1.83-2.9-.08-4l-81-46.74a7.8,7.8,0,0,0-7,0L26.33,403.11c-1.92,1.11-1.94,2.9-.07,4l.07.05,81,46.73a7.74,7.74,0,0,0,7,0l13-7.5Z" style="fill:#e6e6e6"></path><polygon id="freepik--shadow--inject-121" points="324.65 249.64 372.13 277.09 408.95 255.83 361.15 228.2 324.65 249.64" style="fill:#e6e6e6"></polygon><polygon id="freepik--shadow--inject-121" points="364.76 239.33 411 265.98 442.09 248.12 395.53 221.28 364.76 239.33" style="fill:#e6e6e6"></polygon><path id="freepik--shadow--inject-121" d="M289.78,447.6a25.39,25.39,0,0,1-7.78,1.74c-.42,0-.84,0-1.27,0a21.44,21.44,0,0,1-4.39-.45,22.92,22.92,0,0,1-3.25-.95l-2.9-1.11,5.49-5.44a25.62,25.62,0,0,1-6.74,1,16.88,16.88,0,0,1-8.7-2.32c-3-1.75-4.61-3.84-4.69-6.24v-.11a6.56,6.56,0,0,1,1.77-4.39l-4.85-2.79,9.68-5.59,4.33,2.49a24.69,24.69,0,0,1,8.65-1.62,22.31,22.31,0,0,1,6.92,1.1l3.09,1-5.89,5.94,1.61-.47a32.43,32.43,0,0,1,3.85-.8,4.12,4.12,0,0,1,.52-.06l.17,0a6.14,6.14,0,0,1,.7-.07l.8-.05.77,0a16.86,16.86,0,0,1,8.49,2.22l1,.58v.06c2.21,1.51,3.41,3.29,3.6,5.3a6.08,6.08,0,0,1,0,.61,7.2,7.2,0,0,1-1.67,4.69l4.59,2.67-9.61,5.56Z" style="fill:#e6e6e6"></path><polygon id="freepik--shadow--inject-121" points="273 411.26 342.46 371.15 382.46 373.72 387.39 399.32 319.86 438.31 273 411.26" style="fill:#e6e6e6"></polygon></g><g id="freepik--Clouds--inject-121"><g id="freepik--clouds--inject-121"><path d="M87.32,58.38l-7.53,4.35c0-.34.06-.67.06-1V59.55c0-3.88-2.72-5.46-6.09-3.52a11.86,11.86,0,0,0-3.62,3.49c-.55-4.88-4.38-6.7-9-4-5,2.9-9.1,10-9.1,15.77v3.26a8.66,8.66,0,0,0,.77,3.79l-6.26,3.61a7.45,7.45,0,0,0-3.37,5.84c0,2.16,1.51,3,3.37,2L87.32,66.18a7.48,7.48,0,0,0,3.37-5.85C90.69,58.18,89.18,57.3,87.32,58.38Z" style="fill:#ebebeb"></path><path d="M126.32,69.67,120.64,73a6.61,6.61,0,0,0,0-.76V70.55c0-2.93-2.06-4.12-4.59-2.65a8.76,8.76,0,0,0-2.74,2.63c-.42-3.68-3.31-5.06-6.82-3a15.2,15.2,0,0,0-6.87,11.9v2.47a6.51,6.51,0,0,0,.58,2.85l-4.72,2.73A5.61,5.61,0,0,0,93,91.86c0,1.62,1.14,2.28,2.55,1.47l30.79-17.78a5.62,5.62,0,0,0,2.55-4.41C128.87,69.51,127.73,68.85,126.32,69.67Z" style="fill:#ebebeb"></path><path d="M395,65.46l5.2,3c0-.23,0-.46,0-.69v-1.5c0-2.68,1.88-3.77,4.2-2.43a8.07,8.07,0,0,1,2.51,2.41c.38-3.37,3-4.63,6.24-2.77a13.9,13.9,0,0,1,6.29,10.89v2.26a5.83,5.83,0,0,1-.54,2.61l4.33,2.49a5.18,5.18,0,0,1,2.33,4c0,1.49-1.05,2.09-2.33,1.35L395,70.85a5.17,5.17,0,0,1-2.33-4C392.65,65.32,393.69,64.72,395,65.46Z" style="fill:#ebebeb"></path></g></g><g id="freepik--Bags--inject-121"><g id="freepik--Bag--inject-121"><path d="M398.33,144.38a5.33,5.33,0,0,1,5.46.33c4.48,2.58,8.13,10.06,8.13,16.66v15.56a.71.71,0,1,1-1.42,0V161.37c0-6.15-3.32-13.08-7.41-15.44a3.93,3.93,0,0,0-4-.32c-1.69,1-2.66,3.45-2.66,6.79v15.49a.71.71,0,0,1-.71.71.7.7,0,0,1-.7-.71V152.4C395,148.54,396.19,145.62,398.33,144.38Z" style="fill:#263238"></path><polygon points="363.56 233.61 367.92 158.8 380.4 151.62 384.49 221.53 363.56 233.61" style="fill:#15C9C7"></polygon><polygon points="363.56 233.61 367.92 158.8 380.4 151.62 384.49 221.53 363.56 233.61" style="fill:#fff;opacity:0.4"></polygon><polygon points="424.23 176.93 428.32 246.84 384.49 221.53 380.4 151.62 424.23 176.93" style="fill:#15C9C7"></polygon><polygon points="424.23 176.93 428.32 246.84 384.49 221.53 380.4 151.62 424.23 176.93" style="fill:#fff;opacity:0.30000000000000004"></polygon><polygon points="424.23 176.93 428.32 246.84 384.49 221.53 380.4 151.62 424.23 176.93" style="opacity:0.05"></polygon><polygon points="424.23 176.93 411.76 184.11 407.4 258.92 428.32 246.84 424.23 176.93" style="fill:#15C9C7"></polygon><polygon points="424.23 176.93 411.76 184.11 407.4 258.92 428.32 246.84 424.23 176.93" style="fill:#fff;opacity:0.55"></polygon><polygon points="407.4 258.92 416.39 246.29 417.52 202.2 418.64 245.53 428.32 246.84 407.4 258.92" style="opacity:0.05"></polygon><path d="M363.56,233.61l43.84,25.31,4.36-74.81L367.92,158.8Zm33.58-50.46c0-1,.7-1.42,1.57-.92a3.46,3.46,0,0,1,1.56,2.71c0,1-.7,1.41-1.56.92A3.42,3.42,0,0,1,397.14,183.15Zm-15.54-9c0-1,.7-1.42,1.57-.92a3.49,3.49,0,0,1,1.57,2.71c0,1-.71,1.41-1.57.92A3.44,3.44,0,0,1,381.6,174.11Z" style="fill:#15C9C7"></path><path d="M363.56,233.61l43.84,25.31,4.36-74.81L367.92,158.8Zm33.58-50.46c0-1,.7-1.42,1.57-.92a3.46,3.46,0,0,1,1.56,2.71c0,1-.7,1.41-1.56.92A3.42,3.42,0,0,1,397.14,183.15Zm-15.54-9c0-1,.7-1.42,1.57-.92a3.49,3.49,0,0,1,1.57,2.71c0,1-.71,1.41-1.57.92A3.44,3.44,0,0,1,381.6,174.11Z" style="fill:#fff;opacity:0.7000000000000001"></path><path d="M385.83,151.5a5.33,5.33,0,0,1,5.46.32c4.48,2.59,8.12,10.06,8.12,16.66V184a.7.7,0,0,1-.7.71A.71.71,0,0,1,398,184V168.48c0-6.15-3.33-13.07-7.42-15.43a3.94,3.94,0,0,0-4.05-.33c-1.68,1-2.65,3.45-2.65,6.79V175a.71.71,0,0,1-1.42,0v-15.5C382.46,155.65,383.69,152.73,385.83,151.5Z" style="fill:#37474f"></path><path d="M375.06,200.26a24.1,24.1,0,0,1-1.53-8.84q0-4.92,1.53-7t4.53-.39a10.71,10.71,0,0,1,4.51,5.64,23.86,23.86,0,0,1,1.54,8.8c0,3.28-.51,5.63-1.54,7.07s-2.53,1.57-4.51.43A10.64,10.64,0,0,1,375.06,200.26Zm5.53,23.38-3.54-2.2L395.25,193l3.62,2.13Zm-2.32-24.93a3.33,3.33,0,0,0,1.32,2.33c.63.37,1.07.09,1.3-.82a19.68,19.68,0,0,0,.34-4.36,24.69,24.69,0,0,0-.34-4.83,3.06,3.06,0,0,0-1.3-2.11c-.66-.38-1.11-.18-1.34.59a18.47,18.47,0,0,0-.35,4.43A24.87,24.87,0,0,0,378.27,198.71ZM390.77,228a24.35,24.35,0,0,1-1.52-8.84q0-4.92,1.52-7t4.54-.39a10.71,10.71,0,0,1,4.51,5.64,23.85,23.85,0,0,1,1.54,8.79q0,4.92-1.54,7.07c-1,1.44-2.53,1.58-4.51.44A10.7,10.7,0,0,1,390.77,228Zm3.22-1.55a3.26,3.26,0,0,0,1.32,2.33c.63.36,1.07.09,1.3-.82a19.68,19.68,0,0,0,.34-4.36,24.69,24.69,0,0,0-.34-4.83,3.06,3.06,0,0,0-1.3-2.11c-.67-.38-1.11-.19-1.34.59a18.41,18.41,0,0,0-.35,4.43A24.08,24.08,0,0,0,394,226.43Z" style="fill:#fff"></path></g><g id="freepik--bag--inject-121"><path d="M361.59,171.19a4.64,4.64,0,0,1,4.77.28c3.9,2.26,7.08,8.78,7.08,14.54v13.58a.61.61,0,0,1-.61.62.62.62,0,0,1-.62-.62V186c0-5.37-2.9-11.41-6.47-13.47a3.43,3.43,0,0,0-3.54-.28c-1.47.85-2.32,3-2.32,5.92V191.7a.61.61,0,0,1-.61.62.62.62,0,0,1-.62-.62V178.18C358.65,174.81,359.72,172.26,361.59,171.19Z" style="fill:#263238"></path><polygon points="331.24 249.06 335.05 183.77 345.94 177.5 349.51 238.51 331.24 249.06" style="fill:#15C9C7"></polygon><polygon points="331.24 249.06 335.05 183.77 345.94 177.5 349.51 238.51 331.24 249.06" style="opacity:0.2"></polygon><polygon points="384.19 199.59 387.76 260.6 349.51 238.51 345.94 177.5 384.19 199.59" style="fill:#15C9C7"></polygon><polygon points="384.19 199.59 387.76 260.6 349.51 238.51 345.94 177.5 384.19 199.59" style="opacity:0.30000000000000004"></polygon><polygon points="384.19 199.59 373.3 205.86 369.5 271.15 387.76 260.6 384.19 199.59" style="fill:#15C9C7"></polygon><polygon points="384.19 199.59 373.3 205.86 369.5 271.15 387.76 260.6 384.19 199.59" style="opacity:0.15"></polygon><polygon points="369.5 271.15 377.35 260.13 378.33 221.64 379.31 259.46 387.76 260.6 369.5 271.15" style="opacity:0.15"></polygon><path d="M331.24,249.06l38.26,22.09,3.8-65.29-38.25-22.09Zm29.31-44c0-.88.61-1.24,1.36-.8a3,3,0,0,1,1.37,2.36c0,.88-.61,1.23-1.37.81A3,3,0,0,1,360.55,205ZM347,197.13c0-.88.61-1.24,1.36-.8a3,3,0,0,1,1.37,2.37c0,.87-.61,1.23-1.37.8A3,3,0,0,1,347,197.13Z" style="fill:#15C9C7"></path><path d="M350.67,177.4a4.64,4.64,0,0,1,4.77.28c3.91,2.26,7.09,8.78,7.09,14.54V205.8a.62.62,0,0,1-.62.62.61.61,0,0,1-.61-.62V192.22c0-5.37-2.91-11.41-6.47-13.47a3.46,3.46,0,0,0-3.54-.29c-1.47.86-2.32,3-2.32,5.93v13.52a.62.62,0,1,1-1.23,0V184.39C347.74,181,348.81,178.47,350.67,177.4Z" style="fill:#37474f"></path><path d="M342.5,220.72a18.91,18.91,0,0,1-1.21-7q0-3.88,1.21-5.57t3.57-.31a8.48,8.48,0,0,1,3.56,4.45,18.93,18.93,0,0,1,1.22,6.94q0,3.88-1.22,5.58c-.81,1.14-2,1.25-3.56.35A8.45,8.45,0,0,1,342.5,220.72Zm4.37,18.45-2.8-1.74L358.43,215l2.86,1.68ZM345,219.5a2.6,2.6,0,0,0,1,1.83c.5.29.85.08,1-.64a15.66,15.66,0,0,0,.27-3.44,19.44,19.44,0,0,0-.27-3.81,2.41,2.41,0,0,0-1-1.67c-.52-.3-.87-.15-1.05.47a14,14,0,0,0-.28,3.49A19.72,19.72,0,0,0,345,219.5Zm9.87,23.1a19.17,19.17,0,0,1-1.2-7q0-3.88,1.2-5.56t3.58-.32A8.51,8.51,0,0,1,362,234.2a18.89,18.89,0,0,1,1.22,6.94q0,3.88-1.22,5.58t-3.56.34A8.39,8.39,0,0,1,354.9,242.6Zm2.54-1.23a2.59,2.59,0,0,0,1,1.84c.5.29.84.07,1-.64a15,15,0,0,0,.28-3.45,18.65,18.65,0,0,0-.28-3.81,2.38,2.38,0,0,0-1-1.66c-.52-.31-.88-.15-1.06.46a14.78,14.78,0,0,0-.27,3.5A18.82,18.82,0,0,0,357.44,241.37Z" style="fill:#fafafa"></path></g></g><g id="freepik--Device--inject-121"><g id="freepik--Laptop--inject-121"><g id="freepik--down-laptop--inject-121"><path d="M279.56,215.17,414.38,293a8,8,0,0,1,0,14.09L215.87,421.71a9.34,9.34,0,0,1-8.49,0L72.56,343.87a8,8,0,0,1,0-14.09L271.07,215.17A9.34,9.34,0,0,1,279.56,215.17Z" style="fill:#f0f0f0"></path><path d="M211.63,413.53v9.19a8.56,8.56,0,0,1-4.25-1L72.56,343.87a8,8,0,0,1-.43-13.82c-1.9,1.37-1.76,3.36.43,4.63l134.82,77.84A8.75,8.75,0,0,0,211.63,413.53Z" style="fill:#e6e6e6"></path><path d="M211.63,413.53v9.19a8.56,8.56,0,0,1-4.25-1L72.56,343.87a8,8,0,0,1-.43-13.82c-1.9,1.37-1.76,3.36.43,4.63l134.82,77.84A8.75,8.75,0,0,0,211.63,413.53Z" style="opacity:0.1"></path><path d="M215.87,412.52,414.38,297.91c2.35-1.36,2.35-3.55,0-4.9L279.56,215.17a9.34,9.34,0,0,0-8.49,0L72.56,329.78c-2.34,1.35-2.34,3.55,0,4.9l134.82,77.84A9.41,9.41,0,0,0,215.87,412.52Z" style="fill:#fafafa"></path><path d="M211.63,414a9.16,9.16,0,0,1-4.5-1.08L72.31,335.11a3.07,3.07,0,0,1,0-5.76L270.82,214.73a10,10,0,0,1,9,0l134.82,77.84a3.08,3.08,0,0,1,0,5.77L216.12,413A9.15,9.15,0,0,1,211.63,414Zm63.69-199.38a8.27,8.27,0,0,0-4,.95L72.81,330.21a2.11,2.11,0,0,0,0,4l134.82,77.84a8.85,8.85,0,0,0,8,0L414.13,297.47a2.1,2.1,0,0,0,0-4L279.31,215.6A8.23,8.23,0,0,0,275.32,214.65Z" style="fill:#e0e0e0"></path><polygon points="233.26 347.28 302.32 307.41 334.81 326.17 265.76 366.04 233.26 347.28" style="fill:#e0e0e0"></polygon><polygon points="235 348.28 265.76 366.04 333.08 327.18 302.32 309.42 235 348.28" style="fill:#ebebeb"></polygon></g><g id="freepik--top-laptop--inject-121"><path d="M275.32,207.82V52.14a9.09,9.09,0,0,0-4-7.2,9.1,9.1,0,0,0-8.22.15L64.6,159.7a9.41,9.41,0,0,0-4.24,7.35V322.73a9.09,9.09,0,0,0,4,7.2,9.1,9.1,0,0,0,8.22-.15L271.08,215.17A9.41,9.41,0,0,0,275.32,207.82Z" style="fill:#e6e6e6"></path><path d="M275.32,207.82V52.14a9.09,9.09,0,0,0-4-7.2,9.1,9.1,0,0,0-8.22.15L64.6,159.7a9.41,9.41,0,0,0-4.24,7.35V322.73a9.09,9.09,0,0,0,4,7.2,9.1,9.1,0,0,0,8.22-.15L271.08,215.17A9.41,9.41,0,0,0,275.32,207.82Z" style="opacity:0.1"></path><path d="M275.22,51.15c-.41-2-2.11-2.64-4.15-1.46L72.56,164.3a8.87,8.87,0,0,0-3,3.14l-8-4.58a8.71,8.71,0,0,1,3-3.16L263.11,45.09a9.12,9.12,0,0,1,8.23-.15A9,9,0,0,1,275.22,51.15Z" style="fill:#f0f0f0"></path><path d="M72.56,164.3,271.08,49.69c2.34-1.35,4.24-.26,4.24,2.45V207.82a9.41,9.41,0,0,1-4.24,7.35L72.57,329.78c-2.35,1.35-4.25.26-4.25-2.45V171.65A9.38,9.38,0,0,1,72.56,164.3Z" style="fill:#fafafa"></path><path d="M70.67,330.86a2.75,2.75,0,0,1-1.36-.35,3.47,3.47,0,0,1-1.49-3.18V171.65a10,10,0,0,1,4.49-7.78L270.83,49.26a3.07,3.07,0,0,1,5,2.88V207.82a9.93,9.93,0,0,1-4.49,7.78L72.81,330.21A4.32,4.32,0,0,1,70.67,330.86Zm2.14-166.13a8.85,8.85,0,0,0-4,6.92V327.33a2.1,2.1,0,0,0,3.49,2L270.83,214.73a8.83,8.83,0,0,0,4-6.91V52.14a2.1,2.1,0,0,0-3.49-2Z" style="fill:#e0e0e0"></path><polygon points="267.36 61.03 76.28 171.35 76.28 318.44 267.36 208.12 267.36 61.03" style="fill:#37474f"></polygon><polygon points="264.66 206.56 264.66 62.59 76.28 171.35 76.28 315.32 264.66 206.56" style="fill:#455a64"></polygon></g><path d="M102.77,328.46l170-98.15a5.63,5.63,0,0,1,5.09,0l58.54,33.8c1.4.81,1.4,2.13,0,2.94l-170,98.15a5.66,5.66,0,0,1-5.1,0l-58.54-33.8C101.37,330.59,101.37,329.27,102.77,328.46Z" style="fill:#e0e0e0"></path><path d="M173.26,357l-7.91-4.56a3.71,3.71,0,0,0-3.4,0l-7.66,4.42a1,1,0,0,0,0,2l7.91,4.57a3.75,3.75,0,0,0,3.39,0l7.67-4.43A1,1,0,0,0,173.26,357Z" style="fill:#fafafa"></path><path d="M189.78,347.5l-7.91-4.56a3.77,3.77,0,0,0-3.4,0l-10.82,6.25a1,1,0,0,0,0,2l7.9,4.56a3.71,3.71,0,0,0,3.4,0l10.83-6.25A1,1,0,0,0,189.78,347.5Z" style="fill:#fafafa"></path><path d="M206.3,338l-7.91-4.57a3.77,3.77,0,0,0-3.4,0l-10.82,6.25a1,1,0,0,0,0,2l7.9,4.57a3.77,3.77,0,0,0,3.4,0l10.83-6.25A1,1,0,0,0,206.3,338Z" style="fill:#fafafa"></path><path d="M160.92,339.31l7.91,4.57a3.77,3.77,0,0,0,3.4,0l10.82-6.25a1,1,0,0,0,0-2l-7.9-4.57a3.77,3.77,0,0,0-3.4,0l-10.83,6.25A1,1,0,0,0,160.92,339.31Z" style="fill:#fafafa"></path><path d="M267.06,302.89l-7.91-4.57a3.77,3.77,0,0,0-3.4,0l-55.06,31.79a1,1,0,0,0,0,2l7.9,4.57a3.77,3.77,0,0,0,3.4,0l5.77-3.35,2.66-1.52,46.64-26.92A1,1,0,0,0,267.06,302.89Z" style="fill:#fafafa"></path><path d="M166.53,345.2l-7.9-4.56a3.77,3.77,0,0,0-3.4,0L140.68,349a1,1,0,0,0,0,2l7.9,4.57a3.77,3.77,0,0,0,3.4,0l14.55-8.41C167.47,346.62,167.47,345.75,166.53,345.2Z" style="fill:#fafafa"></path><path d="M149.48,339.33l-7.91-4.56a3.75,3.75,0,0,0-3.39,0l-11.12,6.41a1,1,0,0,0,0,2l7.91,4.57a3.77,3.77,0,0,0,3.4,0l11.11-6.42A1,1,0,0,0,149.48,339.33Z" style="fill:#fafafa"></path><path d="M130.18,334.76l-7.91-4.57a3.75,3.75,0,0,0-3.39,0l-5.43,3.13c-.94.55-.94,1.42,0,2l7.91,4.57a3.75,3.75,0,0,0,3.39,0l5.43-3.13A1,1,0,0,0,130.18,334.76Z" style="fill:#fafafa"></path><path d="M118.79,325.61l-1.87-1.07a3.69,3.69,0,0,0-3.39,0L105.88,329a1,1,0,0,0,0,2l1.87,1.08a3.75,3.75,0,0,0,3.39,0l7.65-4.42C119.73,327,119.73,326.16,118.79,325.61Z" style="fill:#fafafa"></path><path d="M119.28,323.18l1.86,1.08a3.77,3.77,0,0,0,3.4,0l7.65-4.42a1,1,0,0,0,0-2l-1.87-1.08a3.77,3.77,0,0,0-3.4,0l-7.64,4.42A1,1,0,0,0,119.28,323.18Z" style="fill:#fafafa"></path><path d="M132.62,315.48l1.86,1.07a3.77,3.77,0,0,0,3.4,0l7.65-4.41a1,1,0,0,0,0-2l-1.87-1.08a3.77,3.77,0,0,0-3.4,0l-7.64,4.42C131.68,314.06,131.68,314.93,132.62,315.48Z" style="fill:#fafafa"></path><path d="M146,307.77l1.87,1.08a3.77,3.77,0,0,0,3.4,0l7.65-4.41a1,1,0,0,0,0-2L157,301.4a3.77,3.77,0,0,0-3.4,0L146,305.81A1,1,0,0,0,146,307.77Z" style="fill:#fafafa"></path><path d="M159.29,300.07l1.87,1.08a3.77,3.77,0,0,0,3.4,0l7.65-4.42a1,1,0,0,0,0-2l-1.87-1.07a3.71,3.71,0,0,0-3.4,0l-7.65,4.41A1,1,0,0,0,159.29,300.07Z" style="fill:#fafafa"></path><path d="M172.63,292.37l1.87,1.08a3.77,3.77,0,0,0,3.4,0l7.64-4.42a1,1,0,0,0,0-2L183.68,286a3.77,3.77,0,0,0-3.4,0l-7.65,4.42A1,1,0,0,0,172.63,292.37Z" style="fill:#fafafa"></path><path d="M186,284.67l1.87,1.08a3.77,3.77,0,0,0,3.4,0l7.64-4.42a1,1,0,0,0,0-2L197,278.29a3.77,3.77,0,0,0-3.4,0L186,282.71A1,1,0,0,0,186,284.67Z" style="fill:#fafafa"></path><path d="M199.31,277l1.87,1.08a3.75,3.75,0,0,0,3.39,0l7.65-4.42a1,1,0,0,0,0-2l-1.86-1.08a3.77,3.77,0,0,0-3.4,0L199.31,275A1,1,0,0,0,199.31,277Z" style="fill:#fafafa"></path><path d="M212.65,269.27l1.87,1.07a3.69,3.69,0,0,0,3.39,0l7.65-4.41a1,1,0,0,0,0-2l-1.86-1.08a3.77,3.77,0,0,0-3.4,0l-7.65,4.42A1,1,0,0,0,212.65,269.27Z" style="fill:#fafafa"></path><path d="M226,261.57l1.87,1.07a3.75,3.75,0,0,0,3.39,0l7.65-4.41a1,1,0,0,0,0-2L237,255.19a3.75,3.75,0,0,0-3.39,0L226,259.6A1,1,0,0,0,226,261.57Z" style="fill:#fafafa"></path><path d="M239.33,253.86l1.87,1.08a3.75,3.75,0,0,0,3.39,0l7.65-4.41c.94-.55.94-1.42,0-2l-1.87-1.08a3.75,3.75,0,0,0-3.39,0l-7.65,4.41A1,1,0,0,0,239.33,253.86Z" style="fill:#fafafa"></path><path d="M252.67,246.16l1.87,1.08a3.75,3.75,0,0,0,3.39,0l7.65-4.42c.94-.54.94-1.41,0-2l-1.87-1.07a3.69,3.69,0,0,0-3.39,0l-7.65,4.41A1,1,0,0,0,252.67,246.16Z" style="fill:#fafafa"></path><path d="M266,238.46l1.87,1.08a3.75,3.75,0,0,0,3.39,0l7.65-4.42a1,1,0,0,0,0-2l-1.87-1.08a3.75,3.75,0,0,0-3.39,0L266,236.5A1,1,0,0,0,266,238.46Z" style="fill:#fafafa"></path><path d="M188.82,334.3l8-4.64a1,1,0,0,0,0-2l-7.91-4.56a3.75,3.75,0,0,0-3.39,0l-8,4.63a1,1,0,0,0,0,2l7.91,4.57A3.75,3.75,0,0,0,188.82,334.3Z" style="fill:#fafafa"></path><path d="M143.87,333.44l7.91,4.57a3.75,3.75,0,0,0,3.39,0l8-4.64a1,1,0,0,0,0-2l-7.91-4.56a3.69,3.69,0,0,0-3.39,0l-8,4.63A1,1,0,0,0,143.87,333.44Z" style="fill:#fafafa"></path><path d="M132.6,322.27l-8,4.64c-.94.54-.94,1.41,0,2l7.91,4.56a3.75,3.75,0,0,0,3.39,0l8-4.63a1,1,0,0,0,0-2L136,322.27A3.75,3.75,0,0,0,132.6,322.27Z" style="fill:#fafafa"></path><path d="M146.32,314.35l-8,4.63c-.94.55-.94,1.42,0,2l7.91,4.57a3.75,3.75,0,0,0,3.39,0l8-4.63c.94-.55.94-1.42,0-2l-7.91-4.57A3.75,3.75,0,0,0,146.32,314.35Z" style="fill:#fafafa"></path><path d="M160,306.43l-8,4.63a1,1,0,0,0,0,2l7.91,4.57a3.75,3.75,0,0,0,3.39,0l8-4.64a1,1,0,0,0,0-2l-7.91-4.56A3.75,3.75,0,0,0,160,306.43Z" style="fill:#fafafa"></path><path d="M173.76,298.51l-8,4.63a1,1,0,0,0,0,2l7.91,4.57a3.75,3.75,0,0,0,3.39,0l8-4.64a1,1,0,0,0,0-2l-7.91-4.56A3.75,3.75,0,0,0,173.76,298.51Z" style="fill:#fafafa"></path><path d="M187.48,290.59l-8,4.63a1,1,0,0,0,0,2l7.91,4.57a3.75,3.75,0,0,0,3.39,0l8-4.64a1,1,0,0,0,0-2l-7.91-4.56A3.69,3.69,0,0,0,187.48,290.59Z" style="fill:#fafafa"></path><path d="M201.2,282.66l-8,4.64a1,1,0,0,0,0,2l7.91,4.56a3.69,3.69,0,0,0,3.39,0l8-4.63a1,1,0,0,0,0-2l-7.91-4.57A3.75,3.75,0,0,0,201.2,282.66Z" style="fill:#fafafa"></path><path d="M214.92,274.74l-8,4.64a1,1,0,0,0,0,2l7.91,4.56a3.75,3.75,0,0,0,3.39,0l8-4.63a1,1,0,0,0,0-2l-7.91-4.57A3.75,3.75,0,0,0,214.92,274.74Z" style="fill:#fafafa"></path><path d="M228.64,266.82l-8,4.64a1,1,0,0,0,0,2l7.91,4.56a3.75,3.75,0,0,0,3.39,0l8-4.63a1,1,0,0,0,0-2L232,266.82A3.75,3.75,0,0,0,228.64,266.82Z" style="fill:#fafafa"></path><path d="M242.36,258.9l-8,4.63a1,1,0,0,0,0,2l7.91,4.56a3.75,3.75,0,0,0,3.39,0l8-4.63c.94-.55.94-1.42,0-2l-7.91-4.57A3.75,3.75,0,0,0,242.36,258.9Z" style="fill:#fafafa"></path><path d="M256.08,251l-8,4.63a1,1,0,0,0,0,2l7.91,4.57a3.75,3.75,0,0,0,3.39,0l8-4.64c.94-.54.94-1.41,0-2L259.47,251A3.75,3.75,0,0,0,256.08,251Z" style="fill:#fafafa"></path><path d="M281.1,247.62l-7.91-4.56a3.75,3.75,0,0,0-3.39,0l-8,4.63a1,1,0,0,0,0,2l7.91,4.57a3.75,3.75,0,0,0,3.39,0l8-4.64A1,1,0,0,0,281.1,247.62Z" style="fill:#fafafa"></path><path d="M275.49,241.73l7.91,4.57a3.75,3.75,0,0,0,3.39,0l5.74-3.32a1,1,0,0,0,0-2l-7.9-4.56a3.77,3.77,0,0,0-3.4,0l-5.74,3.31A1,1,0,0,0,275.49,241.73Z" style="fill:#fafafa"></path><path d="M169,318.92a3.75,3.75,0,0,0-3.39,0l-8,4.64a1,1,0,0,0,0,2l7.91,4.56a3.69,3.69,0,0,0,3.39,0l8-4.63a1,1,0,0,0,0-2Z" style="fill:#fafafa"></path><path d="M182.61,322.16l8-4.63a1,1,0,0,0,0-2L182.73,311a3.75,3.75,0,0,0-3.39,0l-8,4.64a1,1,0,0,0,0,2l7.91,4.56A3.75,3.75,0,0,0,182.61,322.16Z" style="fill:#fafafa"></path><path d="M196.33,314.24l8-4.63a1,1,0,0,0,0-2l-7.91-4.57a3.75,3.75,0,0,0-3.39,0l-8,4.64a1,1,0,0,0,0,2l7.91,4.56A3.75,3.75,0,0,0,196.33,314.24Z" style="fill:#fafafa"></path><path d="M210.05,306.32l8-4.63c.94-.55.94-1.42,0-2l-7.91-4.57a3.75,3.75,0,0,0-3.39,0l-8,4.64c-.94.54-.94,1.41,0,2l7.91,4.56A3.75,3.75,0,0,0,210.05,306.32Z" style="fill:#fafafa"></path><path d="M223.77,298.4l8-4.64c.94-.54.94-1.41,0-2l-7.91-4.56a3.75,3.75,0,0,0-3.39,0l-8,4.63a1,1,0,0,0,0,2l7.91,4.57A3.75,3.75,0,0,0,223.77,298.4Z" style="fill:#fafafa"></path><path d="M237.49,290.48l8-4.64a1,1,0,0,0,0-2l-7.91-4.56a3.75,3.75,0,0,0-3.39,0l-8,4.63a1,1,0,0,0,0,2l7.91,4.57A3.75,3.75,0,0,0,237.49,290.48Z" style="fill:#fafafa"></path><path d="M251.21,282.56l8-4.64a1,1,0,0,0,0-2l-7.91-4.56a3.75,3.75,0,0,0-3.39,0l-8,4.63a1,1,0,0,0,0,2l7.91,4.57A3.75,3.75,0,0,0,251.21,282.56Z" style="fill:#fafafa"></path><path d="M264.93,274.63l8-4.63a1,1,0,0,0,0-2l-7.91-4.56a3.69,3.69,0,0,0-3.39,0l-8,4.63a1,1,0,0,0,0,2l7.91,4.56A3.69,3.69,0,0,0,264.93,274.63Z" style="fill:#fafafa"></path><path d="M278.65,266.71l8-4.63a1,1,0,0,0,0-2l-7.91-4.57a3.75,3.75,0,0,0-3.39,0l-8,4.64a1,1,0,0,0,0,2l7.91,4.56A3.75,3.75,0,0,0,278.65,266.71Z" style="fill:#fafafa"></path><path d="M281.07,254.23l7.91,4.56a3.75,3.75,0,0,0,3.39,0l13.78-8a1,1,0,0,0,0-2l-7.91-4.56a3.71,3.71,0,0,0-3.4,0l-13.77,8A1,1,0,0,0,281.07,254.23Z" style="fill:#fafafa"></path><path d="M202.58,326.35l8-4.63a1,1,0,0,0,0-2l-7.9-4.56a3.71,3.71,0,0,0-3.4,0l-8,4.63a1,1,0,0,0,0,2l7.9,4.56A3.71,3.71,0,0,0,202.58,326.35Z" style="fill:#fafafa"></path><path d="M216.33,318.41l8-4.63a1,1,0,0,0,0-2l-7.91-4.57a3.75,3.75,0,0,0-3.39,0l-8,4.64a1,1,0,0,0,0,2l7.91,4.56A3.75,3.75,0,0,0,216.33,318.41Z" style="fill:#fafafa"></path><path d="M230.09,310.47l8-4.63a1,1,0,0,0,0-2l-7.9-4.57a3.77,3.77,0,0,0-3.4,0l-8,4.64a1,1,0,0,0,0,2l7.9,4.56A3.77,3.77,0,0,0,230.09,310.47Z" style="fill:#fafafa"></path><path d="M243.84,302.53l8-4.63c.94-.55.94-1.42,0-2L244,291.37a3.75,3.75,0,0,0-3.39,0l-8,4.64a1,1,0,0,0,0,1.95l7.91,4.57A3.75,3.75,0,0,0,243.84,302.53Z" style="fill:#fafafa"></path><path d="M257.6,294.59l8-4.64c.94-.54.94-1.41,0-2l-7.9-4.56a3.77,3.77,0,0,0-3.4,0l-8,4.63a1,1,0,0,0,0,2l7.9,4.57A3.77,3.77,0,0,0,257.6,294.59Z" style="fill:#fafafa"></path><path d="M271.35,286.65l8-4.64a1,1,0,0,0,0-2l-7.91-4.56a3.75,3.75,0,0,0-3.39,0l-8,4.63a1,1,0,0,0,0,2l7.91,4.57A3.75,3.75,0,0,0,271.35,286.65Z" style="fill:#fafafa"></path><path d="M285.11,278.71l8-4.64a1,1,0,0,0,0-2l-7.9-4.56a3.77,3.77,0,0,0-3.4,0l-8,4.63a1,1,0,0,0,0,2l7.9,4.57A3.77,3.77,0,0,0,285.11,278.71Z" style="fill:#fafafa"></path><path d="M287.56,266.2l7.91,4.56a3.69,3.69,0,0,0,3.39,0l1-.55,2.56-1.48,17.38-10a1,1,0,0,0,0-2l-7.91-4.57a3.75,3.75,0,0,0-3.39,0l-20.9,12.07A1,1,0,0,0,287.56,266.2Z" style="fill:#fafafa"></path><path d="M283.58,293.35l-7.91-4.57a3.77,3.77,0,0,0-3.4,0L261.45,295a1,1,0,0,0,0,2l7.9,4.57a3.77,3.77,0,0,0,3.4,0l10.83-6.25A1,1,0,0,0,283.58,293.35Z" style="fill:#fafafa"></path><path d="M300.1,283.81l-7.91-4.56a3.71,3.71,0,0,0-3.4,0L278,285.5c-.94.54-.94,1.41,0,2l7.9,4.56a3.77,3.77,0,0,0,3.4,0l10.83-6.25A1,1,0,0,0,300.1,283.81Z" style="fill:#fafafa"></path><path d="M311.18,277.41l-1.41-.81a3.69,3.69,0,0,0-3.39,0l-5.4,3.11a1,1,0,0,0,0,2l1.41.81a3.77,3.77,0,0,0,3.4,0l5.39-3.11A1,1,0,0,0,311.18,277.41Z" style="fill:#fafafa"></path><path d="M322.28,271l-1.41-.81a3.77,3.77,0,0,0-3.4,0l-5.39,3.11c-.94.55-.94,1.42,0,2l1.41.82a3.75,3.75,0,0,0,3.39,0l5.4-3.12A1,1,0,0,0,322.28,271Z" style="fill:#fafafa"></path><path d="M333.37,264.6l-1.41-.81a3.69,3.69,0,0,0-3.39,0l-5.4,3.11a1,1,0,0,0,0,2l1.41.81a3.77,3.77,0,0,0,3.4,0l5.39-3.11A1,1,0,0,0,333.37,264.6Z" style="fill:#fafafa"></path><path d="M314.37,266.44a3.77,3.77,0,0,0-3.4,0l-5.39,3.11a1,1,0,0,0,0,2l1.41.82a3.77,3.77,0,0,0,3.4,0l5.39-3.12a1,1,0,0,0,0-2Z" style="fill:#fafafa"></path></g><g id="freepik--Awning--inject-121"><polygon points="76.28 171.34 252.64 69.52 282.04 86.49 250.18 104.88 247.35 106.51 105.68 188.31 76.28 171.34" style="fill:#fff"></polygon><polygon points="76.28 171.34 105.68 188.31 120.37 179.82 90.98 162.85 76.28 171.34" style="fill:#15C9C7"></polygon><polygon points="105.68 154.37 135.07 171.34 149.77 162.85 120.37 145.88 105.68 154.37" style="fill:#15C9C7"></polygon><polygon points="135.07 137.4 164.46 154.37 179.16 145.88 149.77 128.91 135.07 137.4" style="fill:#15C9C7"></polygon><polygon points="164.46 120.43 193.86 137.4 208.55 128.91 179.16 111.94 164.46 120.43" style="fill:#15C9C7"></polygon><polygon points="193.85 103.46 223.25 120.43 237.95 111.94 208.55 94.97 193.85 103.46" style="fill:#15C9C7"></polygon><polygon points="223.25 86.48 252.64 103.46 267.34 94.97 237.94 78 223.25 86.48" style="fill:#15C9C7"></polygon><polygon points="252.65 69.51 282.05 86.48 296.74 78 267.35 61.03 252.65 69.51" style="fill:#15C9C7"></polygon><path d="M105.68,188.31c0,4.69,3.29,6.59,7.35,4.24a16.25,16.25,0,0,0,7.34-12.73Z" style="fill:#15C9C7"></path><path d="M135.07,171.34c0,4.69,3.29,6.58,7.35,4.24a16.23,16.23,0,0,0,7.35-12.73Z" style="fill:#15C9C7"></path><path d="M164.47,154.37c0,4.68,3.29,6.58,7.34,4.24a16.23,16.23,0,0,0,7.35-12.73Z" style="fill:#15C9C7"></path><path d="M193.86,137.4c0,4.68,3.29,6.58,7.35,4.24a16.23,16.23,0,0,0,7.35-12.73Z" style="fill:#15C9C7"></path><path d="M223.26,120.43c0,4.68,3.29,6.58,7.34,4.24A16.23,16.23,0,0,0,238,111.94Z" style="fill:#15C9C7"></path><path d="M252.65,103.45c0,4.69,3.29,6.59,7.35,4.25A16.25,16.25,0,0,0,267.35,95Z" style="fill:#15C9C7"></path><path d="M282,86.61c0,4.69,3.29,6.59,7.35,4.24a16.23,16.23,0,0,0,7.35-12.72Z" style="fill:#15C9C7"></path><g style="opacity:0.30000000000000004"><path d="M105.68,188.31c0,4.69,3.29,6.59,7.35,4.24a16.25,16.25,0,0,0,7.34-12.73Z"></path><path d="M135.07,171.34c0,4.69,3.29,6.58,7.35,4.24a16.23,16.23,0,0,0,7.35-12.73Z"></path><path d="M164.47,154.37c0,4.68,3.29,6.58,7.34,4.24a16.23,16.23,0,0,0,7.35-12.73Z"></path><path d="M193.86,137.4c0,4.68,3.29,6.58,7.35,4.24a16.23,16.23,0,0,0,7.35-12.73Z"></path><path d="M223.26,120.43c0,4.68,3.29,6.58,7.34,4.24A16.23,16.23,0,0,0,238,111.94Z"></path><path d="M252.65,103.45c0,4.69,3.29,6.59,7.35,4.25A16.25,16.25,0,0,0,267.35,95Z"></path><path d="M282,86.61c0,4.69,3.29,6.59,7.35,4.24a16.23,16.23,0,0,0,7.35-12.72Z"></path></g><path d="M120.37,179.82c0,4.69,3.29,6.59,7.35,4.25a16.25,16.25,0,0,0,7.35-12.73Z" style="fill:#e0e0e0"></path><path d="M149.77,162.85c0,4.69,3.29,6.59,7.35,4.25a16.28,16.28,0,0,0,7.34-12.73Z" style="fill:#e0e0e0"></path><path d="M179.16,145.88c0,4.69,3.29,6.59,7.35,4.24a16.23,16.23,0,0,0,7.35-12.72Z" style="fill:#e0e0e0"></path><path d="M208.56,128.91c0,4.69,3.29,6.59,7.35,4.24a16.25,16.25,0,0,0,7.34-12.72Z" style="fill:#e0e0e0"></path><path d="M238,111.94c0,4.69,3.29,6.59,7.35,4.24a16.23,16.23,0,0,0,7.35-12.73Z" style="fill:#e0e0e0"></path><path d="M267.35,95c0,4.69,3.29,6.58,7.34,4.24A16.23,16.23,0,0,0,282,86.48Z" style="fill:#e0e0e0"></path></g></g><g id="freepik--Screen--inject-121"><g id="freepik--Window--inject-121"><path d="M144.47,349.94l-3.1-1.78a3.9,3.9,0,0,1-1.76-3.06V219.2a3.9,3.9,0,0,1,1.76-3L304.59,121.9a3.86,3.86,0,0,1,3.53,0l3.09,1.78a3.9,3.9,0,0,1,1.76,3.06v125.9a3.9,3.9,0,0,1-1.76,3.05L148,349.94A3.86,3.86,0,0,1,144.47,349.94Z" style="fill:#15C9C7;opacity:0.8"></path><path d="M312.94,126.4c-.14-.88-.86-1.18-1.73-.68L148,220a3.59,3.59,0,0,0-1.25,1.31l-6.62-3.82a3.59,3.59,0,0,1,1.25-1.31L304.59,121.9a3.86,3.86,0,0,1,3.53,0l3.09,1.78A3.94,3.94,0,0,1,312.94,126.4Z" style="fill:#fff;opacity:0.5"></path><path d="M311.21,125.72c-13.39,8.21-26.9,16.24-40.42,24.23l-40.68,23.77-40.92,23.36-20.54,11.54L148,220l20.15-12.21,20.26-12L229.1,172,270,148.61C283.7,140.9,297.4,133.21,311.21,125.72Z" style="fill:#fafafa"></path><path d="M146.75,221.29l-6.62-3.83a3.39,3.39,0,0,0-.51,1.74V345.1a3.88,3.88,0,0,0,1.75,3.06l3.09,1.79a4,4,0,0,0,3.18.16c-.81.26-1.4-.21-1.4-1.19V223A3.38,3.38,0,0,1,146.75,221.29Z" style="fill:#15C9C7"></path><path d="M146.75,221.29l-6.62-3.83a3.39,3.39,0,0,0-.51,1.74V345.1a3.88,3.88,0,0,0,1.75,3.06l3.09,1.79a4,4,0,0,0,3.18.16c-.81.26-1.4-.21-1.4-1.19V223A3.38,3.38,0,0,1,146.75,221.29Z" style="opacity:0.30000000000000004"></path><path d="M200.19,289.64,261,254.53c1-.57,1.81-.11,1.81,1v11.49a4,4,0,0,1-1.81,3.13L200.19,305.3c-1,.58-1.81.11-1.81-1V292.77A4,4,0,0,1,200.19,289.64Z" style="opacity:0.30000000000000004"></path><g id="freepik--add-to-bag-box--inject-121"><path d="M269.24,257.2a3.89,3.89,0,0,0-3.5.06l-60.82,35.11a4,4,0,0,0-1.8,3.13V307a3.38,3.38,0,0,0,5.19,3l60.82-35.11a4,4,0,0,0,1.8-3.13V260.27A3.88,3.88,0,0,0,269.24,257.2Z" style="fill:#263238"></path><path d="M208.31,294.33l60.82-35.11c1-.57,1.8-.11,1.8,1v11.48a4,4,0,0,1-1.8,3.13L208.31,310c-1,.58-1.8.11-1.8-1V297.46A4,4,0,0,1,208.31,294.33Z" style="fill:#37474f"></path><path d="M270.91,260c-.13-.94-.88-1.28-1.79-.75l-60.81,35.11a3.63,3.63,0,0,0-1.28,1.35l-3.39-2a3.71,3.71,0,0,1,1.28-1.35l60.81-35.11a3.88,3.88,0,0,1,3.51-.07A3.93,3.93,0,0,1,270.91,260Z" style="fill:#455a64"></path><path d="M217,292.44a2.41,2.41,0,0,1,1.06-.37,1.26,1.26,0,0,1,.77.19,1.19,1.19,0,0,1,.46.55,2.42,2.42,0,0,1,.18.75.67.67,0,0,1-.07.31.48.48,0,0,1-.18.21l-.63.36c-.1.06-.18.07-.23,0a.46.46,0,0,1-.14-.16.66.66,0,0,0-.41-.36,1,1,0,0,0-.81.21,2.73,2.73,0,0,0-.45.33,2.48,2.48,0,0,0-.36.44,2.06,2.06,0,0,0-.25.49,1.64,1.64,0,0,0-.09.53,1.1,1.1,0,0,0,.08.47.39.39,0,0,0,.29.18,1.82,1.82,0,0,0,.54,0l.82-.19a3.39,3.39,0,0,1,.94-.11,1.09,1.09,0,0,1,.64.21,1.17,1.17,0,0,1,.36.57,2.8,2.8,0,0,1,.13.94,4.57,4.57,0,0,1-.18,1.26,5.2,5.2,0,0,1-.52,1.21,5.5,5.5,0,0,1-.82,1.08,4.77,4.77,0,0,1-1.09.85,2.87,2.87,0,0,1-1,.37,1.44,1.44,0,0,1-.81-.07,1.17,1.17,0,0,1-.57-.53,2.05,2.05,0,0,1-.25-1,.67.67,0,0,1,.07-.31.48.48,0,0,1,.18-.21l.63-.36c.1-.06.18-.08.23-.05a.27.27,0,0,1,.13.17c0,.09.1.18.16.27a.48.48,0,0,0,.24.18.94.94,0,0,0,.38,0,1.84,1.84,0,0,0,.57-.24,4.6,4.6,0,0,0,.53-.37,3.19,3.19,0,0,0,.44-.46,2.39,2.39,0,0,0,.3-.54,1.53,1.53,0,0,0,.12-.6.54.54,0,0,0-.13-.42.48.48,0,0,0-.38-.12,3,3,0,0,0-.63.11l-.88.18a2.74,2.74,0,0,1-.78.06.9.9,0,0,1-.56-.24,1.16,1.16,0,0,1-.33-.59,4,4,0,0,1-.11-1,4.62,4.62,0,0,1,.18-1.26,5.47,5.47,0,0,1,1.25-2.2A3.7,3.7,0,0,1,217,292.44Z" style="fill:#fafafa"></path><path d="M226,287.36a.14.14,0,0,1,.17,0,.28.28,0,0,1,.07.22v8.95a.66.66,0,0,1-.07.3.42.42,0,0,1-.17.21l-.73.42c-.07,0-.13,0-.17,0a.28.28,0,0,1-.08-.22v-3.66l-2.71,1.57v3.66a.82.82,0,0,1-.07.3.39.39,0,0,1-.18.21l-.73.43a.15.15,0,0,1-.17,0,.33.33,0,0,1-.07-.23v-8.95a.82.82,0,0,1,.07-.3.42.42,0,0,1,.17-.21l.73-.42a.14.14,0,0,1,.18,0,.32.32,0,0,1,.07.22v3.56l2.71-1.57V288.3a.75.75,0,0,1,.08-.31.35.35,0,0,1,.17-.2Z" style="fill:#fafafa"></path><path d="M227.87,289.89a9.35,9.35,0,0,1,.19-1.57,7.05,7.05,0,0,1,.49-1.47,5.72,5.72,0,0,1,.81-1.27,4.46,4.46,0,0,1,1.15-1,2.39,2.39,0,0,1,1.15-.37,1.15,1.15,0,0,1,.81.34,2.15,2.15,0,0,1,.49.9,5.35,5.35,0,0,1,.2,1.36c0,.17,0,.36,0,.57s0,.43,0,.66,0,.45,0,.66,0,.41,0,.59a9.22,9.22,0,0,1-.19,1.57,7.14,7.14,0,0,1-.49,1.48,5.87,5.87,0,0,1-.82,1.27,4.39,4.39,0,0,1-1.15.95,2.19,2.19,0,0,1-1.15.37,1.1,1.1,0,0,1-.81-.33,2,2,0,0,1-.49-.9,6,6,0,0,1-.19-1.35c0-.18,0-.37,0-.58v-1.32C227.86,290.27,227.86,290.07,227.87,289.89Zm4.07-2.28a1.77,1.77,0,0,0-.41-1.3.84.84,0,0,0-1,0,2.64,2.64,0,0,0-1,1.14,4.44,4.44,0,0,0-.42,1.78c0,.36,0,.75,0,1.18s0,.82,0,1.16a1.79,1.79,0,0,0,.42,1.3.84.84,0,0,0,1,0,2.69,2.69,0,0,0,1-1.13,4.28,4.28,0,0,0,.41-1.78c0-.36,0-.75,0-1.18S232,288,231.94,287.61Z" style="fill:#fafafa"></path><path d="M237.45,280.74c.73-.41,1.29-.48,1.69-.18s.61.95.61,2a5.61,5.61,0,0,1-.61,2.68,4.27,4.27,0,0,1-1.69,1.78l-1.44.83v3.09a.73.73,0,0,1-.07.31.46.46,0,0,1-.17.21l-.73.42a.13.13,0,0,1-.17,0,.28.28,0,0,1-.07-.22v-9a.66.66,0,0,1,.07-.3.46.46,0,0,1,.17-.21ZM236,286.08l1.4-.81a2.36,2.36,0,0,0,.82-.78,2.41,2.41,0,0,0,.3-1.27c0-.51-.1-.81-.3-.89a1,1,0,0,0-.82.17l-1.4.81Z" style="fill:#fafafa"></path><path d="M247.58,284.6a.2.2,0,0,1-.24,0l-.11-.13-2.52-4.31v5.71a.87.87,0,0,1-.07.31.48.48,0,0,1-.18.21l-.73.42a.14.14,0,0,1-.17,0,.32.32,0,0,1-.07-.22v-8.95a.82.82,0,0,1,.07-.3.54.54,0,0,1,.17-.21l.64-.37c.1-.06.17-.06.23,0l.12.13,2.52,4.31v-5.71a.73.73,0,0,1,.07-.31.39.39,0,0,1,.17-.2l.73-.42a.12.12,0,0,1,.17,0,.28.28,0,0,1,.07.22v9a.66.66,0,0,1-.07.3.42.42,0,0,1-.17.21Z" style="fill:#fafafa"></path><path d="M250.09,277.07a9.34,9.34,0,0,1,.19-1.58,7.05,7.05,0,0,1,.49-1.47,6,6,0,0,1,.81-1.27,4.46,4.46,0,0,1,1.15-1,2.39,2.39,0,0,1,1.15-.37,1.15,1.15,0,0,1,.81.34,2.13,2.13,0,0,1,.49.91,5.2,5.2,0,0,1,.2,1.35c0,.17,0,.36,0,.57s0,.43,0,.66,0,.45,0,.66,0,.41,0,.59a9.22,9.22,0,0,1-.19,1.57,7,7,0,0,1-.49,1.48,5.87,5.87,0,0,1-.82,1.27,4.39,4.39,0,0,1-1.15.95,2.19,2.19,0,0,1-1.15.37,1.1,1.1,0,0,1-.81-.33,2,2,0,0,1-.49-.9,6,6,0,0,1-.19-1.35c0-.18,0-.37,0-.58s0-.43,0-.65,0-.45,0-.66S250.08,277.24,250.09,277.07Zm4.08-2.29a1.83,1.83,0,0,0-.42-1.3.84.84,0,0,0-1,0,2.64,2.64,0,0,0-1,1.14,4.44,4.44,0,0,0-.42,1.78c0,.36,0,.76,0,1.18s0,.82,0,1.17a1.78,1.78,0,0,0,.42,1.29.84.84,0,0,0,1,0,2.69,2.69,0,0,0,1-1.13,4.4,4.4,0,0,0,.42-1.78c0-.35,0-.75,0-1.18S254.18,275.13,254.17,274.78Z" style="fill:#fafafa"></path><path d="M259.86,272.89l-.77,4.59a3,3,0,0,1-.11.41.5.5,0,0,1-.21.24l-.73.42a.14.14,0,0,1-.21,0,.53.53,0,0,1-.1-.27l-1.15-8.08a.49.49,0,0,1,0-.11.66.66,0,0,1,.07-.3.54.54,0,0,1,.17-.21l.67-.39a.17.17,0,0,1,.17,0c.05,0,.09.1.11.23l.75,5.43.67-4.08a2.32,2.32,0,0,1,.08-.3.54.54,0,0,1,.23-.28l.74-.43c.11-.06.19-.06.23,0a.56.56,0,0,1,.09.2l.66,3.32L262,267a.8.8,0,0,1,.11-.35.43.43,0,0,1,.17-.18l.66-.39c.07,0,.13,0,.17,0a.28.28,0,0,1,.08.22s0,.06,0,.11L262,275.8a1.56,1.56,0,0,1-.11.4.55.55,0,0,1-.21.26l-.73.42c-.09.05-.16,0-.2,0a.69.69,0,0,1-.11-.27Z" style="fill:#fafafa"></path></g><path d="M204.26,197.06a2.23,2.23,0,0,1,1-.34,1.17,1.17,0,0,1,.72.17,1.16,1.16,0,0,1,.44.53,1.89,1.89,0,0,1,.16.71.49.49,0,0,1-.06.29.4.4,0,0,1-.17.19l-.59.35c-.1,0-.17.07-.22,0a.36.36,0,0,1-.13-.16.72.72,0,0,0-.39-.34,1,1,0,0,0-.77.2,2.12,2.12,0,0,0-.42.32,2,2,0,0,0-.35.41,2.08,2.08,0,0,0-.24.47,1.67,1.67,0,0,0-.08.49,1,1,0,0,0,.08.45.37.37,0,0,0,.27.17,1.61,1.61,0,0,0,.51,0l.78-.18a3,3,0,0,1,.89-.1,1,1,0,0,1,.6.2,1.06,1.06,0,0,1,.35.54,2.8,2.8,0,0,1,.11.89,4.12,4.12,0,0,1-.17,1.19,4.83,4.83,0,0,1-.48,1.15,5,5,0,0,1-.78,1,4.49,4.49,0,0,1-1,.81,2.88,2.88,0,0,1-.91.35,1.31,1.31,0,0,1-.77-.07,1.15,1.15,0,0,1-.54-.49,2,2,0,0,1-.23-.92.49.49,0,0,1,.06-.29.46.46,0,0,1,.17-.19l.6-.35a.29.29,0,0,1,.22-.05.26.26,0,0,1,.12.16,1.1,1.1,0,0,0,.15.26.44.44,0,0,0,.23.17.85.85,0,0,0,.36,0,1.67,1.67,0,0,0,.54-.23,4,4,0,0,0,.5-.34,2.12,2.12,0,0,0,.41-.44,2.16,2.16,0,0,0,.29-.51,1.38,1.38,0,0,0,.11-.57.53.53,0,0,0-.12-.4.47.47,0,0,0-.36-.11,3.38,3.38,0,0,0-.6.1l-.82.18a2.91,2.91,0,0,1-.75.05.88.88,0,0,1-.53-.22,1.2,1.2,0,0,1-.31-.57,3.54,3.54,0,0,1-.1-.95,4.44,4.44,0,0,1,.17-1.19,5.16,5.16,0,0,1,1.18-2.09A3.76,3.76,0,0,1,204.26,197.06Z" style="fill:#fafafa"></path><path d="M212.77,192.28a.12.12,0,0,1,.16,0,.25.25,0,0,1,.07.21v5.38a7.94,7.94,0,0,1-.15,1.56,6.87,6.87,0,0,1-.46,1.39,5.15,5.15,0,0,1-.77,1.17,4.21,4.21,0,0,1-1.06.87,2.21,2.21,0,0,1-1.07.36,1,1,0,0,1-.77-.29,1.8,1.8,0,0,1-.45-.86,5.49,5.49,0,0,1-.15-1.38v-5.38a.62.62,0,0,1,.07-.29.42.42,0,0,1,.16-.2l.69-.4a.13.13,0,0,1,.16,0,.28.28,0,0,1,.07.21V200a3.33,3.33,0,0,0,.09.86.91.91,0,0,0,.27.47.49.49,0,0,0,.41.12,1.44,1.44,0,0,0,.52-.19,2.84,2.84,0,0,0,.52-.41,2.36,2.36,0,0,0,.41-.6,3.16,3.16,0,0,0,.27-.77,4.28,4.28,0,0,0,.1-1v-5.31a.62.62,0,0,1,.07-.29.42.42,0,0,1,.16-.2Z" style="fill:#fafafa"></path><path d="M217.23,189.71c.68-.4,1.22-.46,1.6-.18s.57.9.57,1.86a5.36,5.36,0,0,1-.57,2.53,4.14,4.14,0,0,1-1.6,1.69l-1.37.79v2.92a.75.75,0,0,1-.06.29.43.43,0,0,1-.17.2l-.69.4a.12.12,0,0,1-.16,0,.29.29,0,0,1-.07-.21v-8.47a.77.77,0,0,1,.07-.29.56.56,0,0,1,.16-.2Zm-1.37,5,1.32-.77a2.06,2.06,0,0,0,.78-.74,2.27,2.27,0,0,0,.29-1.2c0-.49-.1-.77-.29-.85a1,1,0,0,0-.78.17l-1.32.76Z" style="fill:#fafafa"></path><path d="M224.72,192.92a.13.13,0,0,1,.17,0,.29.29,0,0,1,.06.21v.93a.75.75,0,0,1-.06.29.43.43,0,0,1-.17.2L221,196.72a.13.13,0,0,1-.16,0,.33.33,0,0,1-.07-.21V188a.72.72,0,0,1,.07-.28.43.43,0,0,1,.16-.2l3.67-2.12a.12.12,0,0,1,.17,0,.29.29,0,0,1,.07.21v.93a.77.77,0,0,1-.07.29.49.49,0,0,1-.17.2l-2.75,1.59v2.08l2.57-1.48a.12.12,0,0,1,.16,0,.28.28,0,0,1,.07.21v.93a.62.62,0,0,1-.07.29.48.48,0,0,1-.16.2l-2.57,1.48v2.18Z" style="fill:#fafafa"></path><path d="M228.86,183q1.06-.62,1.62-.18a2.25,2.25,0,0,1,.56,1.8,5.55,5.55,0,0,1-.29,1.79,4.46,4.46,0,0,1-.84,1.49l1.18,2.56a.59.59,0,0,1,0,.13.69.69,0,0,1-.05.24.36.36,0,0,1-.13.16l-.73.42c-.11.06-.2.07-.25,0a.55.55,0,0,1-.11-.17l-1.12-2.41-1.13.66v3.05a.77.77,0,0,1-.07.29.48.48,0,0,1-.16.2l-.69.4a.15.15,0,0,1-.17,0,.33.33,0,0,1-.06-.21v-8.48a.71.71,0,0,1,.06-.28.39.39,0,0,1,.17-.2Zm-1.27,4.87,1.23-.72a2.23,2.23,0,0,0,.78-.71,2.05,2.05,0,0,0,.29-1.16c0-.49-.1-.76-.29-.82a1.09,1.09,0,0,0-.78.2l-1.23.71Z" style="fill:#fafafa"></path><path d="M237,178.17a2.26,2.26,0,0,1,1-.35,1.17,1.17,0,0,1,.72.18,1.12,1.12,0,0,1,.44.52,2,2,0,0,1,.17.71.63.63,0,0,1-.07.3.45.45,0,0,1-.16.19l-.6.35c-.1.05-.17.07-.22,0a.45.45,0,0,1-.13-.16.63.63,0,0,0-.39-.34c-.17-.07-.43,0-.77.2a2.39,2.39,0,0,0-.42.31,3.31,3.31,0,0,0-.35.41,1.86,1.86,0,0,0-.23.47,1.47,1.47,0,0,0-.09.5,1,1,0,0,0,.08.44.37.37,0,0,0,.28.18,1.94,1.94,0,0,0,.5,0l.79-.18a3.35,3.35,0,0,1,.88-.11,1,1,0,0,1,.6.2,1.09,1.09,0,0,1,.35.54,2.86,2.86,0,0,1,.12.89,4.52,4.52,0,0,1-.17,1.2,5.23,5.23,0,0,1-.49,1.14,5.06,5.06,0,0,1-.77,1,4.72,4.72,0,0,1-1,.81,2.93,2.93,0,0,1-.92.35,1.4,1.4,0,0,1-.77-.07,1.15,1.15,0,0,1-.54-.49,2.14,2.14,0,0,1-.23-.92.59.59,0,0,1,.07-.29.42.42,0,0,1,.16-.2l.6-.34a.25.25,0,0,1,.22,0,.31.31,0,0,1,.13.16,2.15,2.15,0,0,0,.14.26.48.48,0,0,0,.23.17.85.85,0,0,0,.36,0A2.09,2.09,0,0,0,237,186a4,4,0,0,0,.49-.35,2.44,2.44,0,0,0,.42-.43,2.9,2.9,0,0,0,.29-.51,1.56,1.56,0,0,0,.11-.57.53.53,0,0,0-.12-.4.45.45,0,0,0-.36-.11,3.11,3.11,0,0,0-.6.1c-.24.06-.52.12-.83.17a2.52,2.52,0,0,1-.75.06.83.83,0,0,1-.52-.23,1.17,1.17,0,0,1-.32-.56,4,4,0,0,1-.1-1,4.43,4.43,0,0,1,.17-1.18,5.61,5.61,0,0,1,.47-1.13,5.19,5.19,0,0,1,.71-1A3.71,3.71,0,0,1,237,178.17Z" style="fill:#fafafa"></path><path d="M243.6,174.48c.09,0,.16-.06.21,0a.87.87,0,0,1,.12.27l2.08,7.08a.22.22,0,0,1,0,.09.65.65,0,0,1-.07.29.47.47,0,0,1-.16.2l-.61.35c-.12.07-.2.07-.24,0a.32.32,0,0,1-.09-.17l-.37-1.24-2.69,1.55-.37,1.67a2.13,2.13,0,0,1-.09.27.58.58,0,0,1-.24.25l-.61.35a.12.12,0,0,1-.17,0,.29.29,0,0,1-.06-.21v-.09l2.09-9.5a1.47,1.47,0,0,1,.12-.4.5.5,0,0,1,.2-.23Zm.47,5.49-.94-3.2-.93,4.28Z" style="fill:#fafafa"></path><path d="M251.19,177.64a.13.13,0,0,1,.16,0,.33.33,0,0,1,.07.21v.93a.73.73,0,0,1-.07.29.43.43,0,0,1-.16.2l-3.74,2.16a.13.13,0,0,1-.16,0,.34.34,0,0,1-.07-.22v-8.47a.82.82,0,0,1,.07-.29.56.56,0,0,1,.16-.2l.69-.39a.12.12,0,0,1,.17,0,.29.29,0,0,1,.06.21v7.19Z" style="fill:#fafafa"></path><path d="M256.63,174.5a.12.12,0,0,1,.16,0,.25.25,0,0,1,.07.21v.93a.62.62,0,0,1-.07.29.42.42,0,0,1-.16.2l-3.74,2.16a.13.13,0,0,1-.16,0,.28.28,0,0,1-.07-.21V169.6a.58.58,0,0,1,.07-.28.37.37,0,0,1,.16-.2l3.67-2.12a.11.11,0,0,1,.16,0,.25.25,0,0,1,.07.21v.93a.62.62,0,0,1-.07.29.47.47,0,0,1-.16.2l-2.75,1.58v2.09l2.56-1.48a.13.13,0,0,1,.17,0,.33.33,0,0,1,.06.21V172a.75.75,0,0,1-.06.29.43.43,0,0,1-.17.2L253.81,174v2.18Z" style="fill:#fafafa"></path><path d="M190.15,257.46c-2.48,5.2-5.69,8.8-9.16,10.8-9,5.17-12.75-2.13-12.78-11.76s4.06-21.91,12.78-26.94c3.27-1.89,6.37-1.77,8.85.56l-3,6.26c-1.59-1.47-3.72-1.36-5.82-.14-5.82,3.36-8.34,11.49-8.3,17.67s2.34,11.22,8.3,7.78a17.06,17.06,0,0,0,6.06-7.26Z" style="fill:#fafafa"></path><path d="M203.51,232.62l6.41-19,5.47-3.17v.32l-9.61,27V253.1l-4.54,2.62V240.4L192,224.27V224l5.41-3.12Z" style="fill:#fafafa"></path><path d="M238.71,207.74a14.55,14.55,0,0,1-3.13,9c2.82-.3,3.85,3.72,3.85,6.05,0,8.27-4,13.25-9,16.13L219,245.48V208.36l11.43-6.6C235.16,199,238.71,200.26,238.71,207.74Zm-15.26,12.94,7-4a6.93,6.93,0,0,0,3.79-6.16c0-1.7-.9-4-3.79-2.37l-7,4Zm0,15.69,7-4c1.86-1.08,4.51-3.56,4.51-7.06,0-3.34-2.65-3.56-4.51-2.49l-7,4Z" style="fill:#fafafa"></path><path d="M262.34,220.45l-18,10.42V193.75l18-10.42v6.79l-13.54,7.81v8.54l13.06-7.54v6.52L248.8,213v8.38l13.54-7.82Z" style="fill:#fafafa"></path><path d="M289,205.08l-5.4,3.12-7-8.35-4.37,2.52v12.41l-4.55,2.62V180.23c3.82-2.2,7.65-4.36,11.47-6.56,5.68-3.23,8.68.87,8.68,7.29,0,5.09-1.52,11.1-6.1,15.18l7.3,8.46Zm-16.8-20.9v11.88l6.92-4c2.89-1.67,4.13-5.35,4.13-8.32s-1.27-5.2-4.13-3.55Z" style="fill:#fafafa"></path><path d="M203,271.34c1.27-1.15,3.23-4.92,5.26-9.54.22-.51.37-1,.51-1.06s.37,1.67.43,2.46c0,.33.14.55.14.91a5.07,5.07,0,0,1-.42,1.72c-1.28,3.32-5.47,11.15-7.24,12.17-1.54.9-2.4-.39-2.4-2.05,0-.18,0-.37,0-.56.44-3.86,7.27-22.82,10.53-31.69-4.61,10-15.39,33.92-17.73,38.23a1.86,1.86,0,0,1-.72.77,1.2,1.2,0,0,1-1.87-1.14v-.13c.1-1.51,5.75-21.74,8.58-30.8-3.48,7.91-11.39,27.47-15.46,42.38a1.86,1.86,0,0,1-.75,1.27,3.17,3.17,0,0,1-.95.26c-.87.14-1.48-.21-1.48-1.32,0-2.52,15.21-44.05,20.22-52.1a3.19,3.19,0,0,1,1-1.12c.37-.22.52,0,.66,0a.38.38,0,0,0,.12-.15,2,2,0,0,1,.87-.92c.81-.47,1.87-.51,1.87.19a1,1,0,0,1,0,.23c-.33,1.62-6.09,20.06-9.21,31.19,3.36-8.18,14.36-32.69,17.94-38.05a1.29,1.29,0,0,1,.46-.44,3.26,3.26,0,0,1,1.19-.33,10.83,10.83,0,0,0,1.79-.66c.33-.09.65.11.65.58a1.28,1.28,0,0,1-.1.47C214.63,237.85,204.92,263.54,203,271.34Z" style="fill:#263238"></path><path d="M213,271.26c-1.63.94-2.76-.37-2.76-2.7,0-9.45,6.68-21.21,9.81-23,1-.59,1.57-.1,1.57.21v.15a3.69,3.69,0,0,1,.57-.38c.79-.46,1.73-.2,1.73,1.72C223.91,252.48,217.84,268.47,213,271.26Zm7.54-21.33c-.34.19-.59.08-.59-1a30.56,30.56,0,0,0-5,8.84,27.8,27.8,0,0,0-2.14,8.33c0,.9.24,1.31.69,1.05.76-.44,2.76-3.12,4.8-8.23,1.85-4.64,2.62-7.65,2.62-8.69,0-.34-.08-.47-.23-.38Z" style="fill:#263238"></path><path d="M238.65,252.2c-1.23,2.45-3.17,6.28-5.17,7.44-1.35.73-2.82,0-2.82-2.56,0-3.29,1.83-8.73,3.24-12.75a24,24,0,0,0,.89-3l0,0c-.88.61-5.43,10.62-6.27,12.53-1.27,2.87-2.41,5.79-3.52,8.71a4.15,4.15,0,0,1-1.06,1.72,2.63,2.63,0,0,1-1.55,0c-.12,0-.12-.19-.12-.35a18.36,18.36,0,0,1,1-3.76c1.45-4.72,2.93-9.39,4.41-14.05.49-1.52.89-3,1.48-4.53a6.08,6.08,0,0,1,2.56-3c.37-.21.4.34.4.78,0,1.21-1.68,5.73-2.17,7.23,1.62-3.68,4.21-9.37,6.8-10.86.86-.5,1.58,0,1.58,1.42,0,1.58-2,6.94-2.69,8.88-.56,1.64-2.44,7-2.44,8.81,0,.83.52.84,1,.56,1.6-.92,4.32-7.81,4.81-8.09s.44,1.61.44,2.08A4.93,4.93,0,0,1,238.65,252.2Z" style="fill:#263238"></path><path d="M260.38,206.12c-2.31,7.08-4.66,14.17-6.85,21.25-.94,3-4.82,16.26-4.82,18.38V246c0,.54.11,1,.5.77,1.45-.84,3.77-6.63,4.16-7.37a1,1,0,0,1,.37-.45c.4-.23.45.64.45,2a5,5,0,0,1-.1,1.17c-.46,1.64-3.05,7.38-5.28,8.67-1.92,1.11-2.53,0-2.53-1.83a27.07,27.07,0,0,1,1-5.94c-1.54,4-4.61,10.82-7.33,12.39-1.55.89-2.11-.78-2.11-2.85,0-7.28,6.62-20.75,11.28-23.44a1.09,1.09,0,0,1,1.26.28c.65-2,1.19-3.88,1.8-5.81,1.23-3.89,2.47-7.74,3.78-11.58.52-1.52,1-3.14,1.67-4.61a5.54,5.54,0,0,1,2.2-2.7c.44-.25.69.07.69.71A2.43,2.43,0,0,1,260.38,206.12Zm-18.91,40.52a18,18,0,0,0-.79,3.8c0,.25,0,.57.24.45,1.11-.64,5.4-10.7,6.14-12.5.8-2,1.58-3.94,2.3-6C246,235.5,243.12,241.13,241.47,246.64Z" style="fill:#263238"></path><path d="M269.31,232.22a5,5,0,0,1-.1,1.17c-.45,1.64-3,7.37-5.28,8.67-1.75,1-2.51-.7-2.51-2.88a11.14,11.14,0,0,1,.34-2.65c-1.85,4.77-4.58,9.32-6.26,10.29-1.45.84-2.46-.29-2.62-2a10.13,10.13,0,0,1-.07-1.25c0-7.7,6.32-19.5,10.06-21.66,1.3-.75,2-.39,2.2.36.56-1.64.83-1.9,1.52-2.3s1.28-.32,1.28.61a3.24,3.24,0,0,1-.24,1.22c-.25.56-3.06,9.25-3.62,14.24a5.21,5.21,0,0,0-.05.75c0,.65.12,1.36.54,1.11,1.35-.77,3.72-6.73,4-7.24a1.11,1.11,0,0,1,.37-.45c.18-.11.33,0,.35.29S269.31,231.52,269.31,232.22Zm-10.92.24c-1.48,3.22-2.92,8-2.92,9.54,0,.42.1.59.33.45.64-.37,4.48-7.73,5.76-10.9.75-1.92,1.9-5.09,2.79-7.44C263.21,224.77,261,226.77,258.39,232.46Z" style="fill:#263238"></path><path d="M269.77,253.58c-.17.12-.32.24-.48.33-1.14.66-1.54-.17-1.54-1.52a16.74,16.74,0,0,1,.7-4.19A72.34,72.34,0,0,1,272.66,238c.28-.81,1-3.39,2.52-8.73-1.73,3.93-3.77,8.18-5.65,9.58l-.12.07a1.46,1.46,0,0,1-1.33.07c-.5-.23-.6-1.26-.6-1.93,0-.13,0-.26,0-.38.21-3.94,1.06-5.16,3.28-12.71,1.59-4.67,2.21-8.11,2.85-8.48.32-.18,1.28,0,1.28,1.23,0,1.63-4.41,14.84-4.41,16.53,0,.15.05.18.13.13.89-.52,6.06-10.67,8.51-17.74.73-2.07,1.42-4.26,2-4.61.15-.09,1.08-.47,1.28-.17s.32.3.32.61a4.73,4.73,0,0,1-.22,1c-.29,1-5.27,16.45-7.27,24,2.38-4.45,5-9.62,7.2-14a1.19,1.19,0,0,1,.37-.45c.37-.21.52.73.52,2.16a2.62,2.62,0,0,1-.16,1.05,200.17,200.17,0,0,0-9.47,18.78C273.38,244.86,271.6,252.16,269.77,253.58Z" style="fill:#263238"></path></g></g><g id="freepik--Card--inject-121"><g id="freepik--card--inject-121"><path d="M114.2,449.94l50.22-29a2.4,2.4,0,0,0,1.36-2.08c0-.77,0-3.56,0-3.56s-1.34,1.92-1.36,1.93l-38.05,21.95-12.2,7a7.27,7.27,0,0,1-6.61,0L31.51,402.32,30.2,400.8s-.07,2.63,0,3.5A2.31,2.31,0,0,0,31.51,406l76.07,43.91A7.26,7.26,0,0,0,114.2,449.94Z" style="fill:#15C9C7"></path><path d="M150,425.59h0v3.71L164.42,421a2.4,2.4,0,0,0,1.36-2.08c0-.77,0-3.56,0-3.56s-1.34,1.92-1.36,1.93Z" style="fill:#37474f"></path><path d="M164.43,417.24a.19.19,0,0,0,.07-.06c1.75-1,1.71-2.72-.07-3.76L88.35,369.5a7.36,7.36,0,0,0-6.61,0l-50.23,29c-1.81,1-1.82,2.73-.07,3.77l.07.05,76.06,43.91a7.27,7.27,0,0,0,6.61,0l12.2-7Z" style="fill:#15C9C7"></path><path d="M164.43,417.24a.19.19,0,0,0,.07-.06c1.75-1,1.71-2.72-.07-3.76L88.35,369.5a7.36,7.36,0,0,0-6.61,0l-50.23,29c-1.81,1-1.82,2.73-.07,3.77l.07.05,76.06,43.91a7.27,7.27,0,0,0,6.61,0l12.2-7Z" style="fill:#fff;opacity:0.30000000000000004"></path><path d="M150,425.59l14.48-8.35a.19.19,0,0,0,.07-.06c1.75-1,1.71-2.72-.07-3.76L88.35,369.5a7.36,7.36,0,0,0-6.61,0l-14.48,8.36Z" style="fill:#455a64"></path><path d="M30.2,400.8s-.07,2.63,0,3.5A2.31,2.31,0,0,0,31.51,406l76.07,43.91a7.06,7.06,0,0,0,4.19.75V447a7.18,7.18,0,0,1-4.2-.75L31.51,402.32Z" style="opacity:0.15"></path><path d="M54.81,395.83,53.34,395a.22.22,0,0,1-.11-.13.12.12,0,0,1,.08-.13.38.38,0,0,1,.22-.05.84.84,0,0,1,.24.06l.49.29,2.12-1.23c.12-.07.17-.15.16-.25a.43.43,0,0,0-.22-.27h0a.17.17,0,0,1-.11-.13c0-.05,0-.09.08-.13a.38.38,0,0,1,.22,0,.48.48,0,0,1,.24.06h0a.77.77,0,0,1,.44.54.52.52,0,0,1-.31.52l-2.12,1.22.49.28a.21.21,0,0,1,.11.14.15.15,0,0,1-.08.13.4.4,0,0,1-.22,0A.48.48,0,0,1,54.81,395.83Z" style="fill:#fff"></path><path d="M59.28,396.94l-1-.57a1,1,0,0,0-.47-.13.77.77,0,0,0-.44.09l-.32.19a.05.05,0,0,0,0,.06.1.1,0,0,0,.06.07l2.08,1.2c.07,0,.11.09.11.14s0,.09-.07.13a.41.41,0,0,1-.23,0,.44.44,0,0,1-.23-.06l-2.45-1.42a.2.2,0,0,1-.12-.14.12.12,0,0,1,.08-.12l.64-.37a1.53,1.53,0,0,1,.89-.18,2,2,0,0,1,.94.25l1,.57a1,1,0,0,0,.47.13.79.79,0,0,0,.45-.09l.42-.24a.27.27,0,0,0,.16-.26A.37.37,0,0,0,61,396l-1-.57a1,1,0,0,0-.47-.13.76.76,0,0,0-.44.09.4.4,0,0,1-.22,0,.61.61,0,0,1-.24-.07.19.19,0,0,1-.11-.13.12.12,0,0,1,.08-.13,1.51,1.51,0,0,1,.88-.18,2.06,2.06,0,0,1,1,.25l1,.57a.81.81,0,0,1,.45.55.52.52,0,0,1-.32.51l-.42.24a1.55,1.55,0,0,1-.89.18A2,2,0,0,1,59.28,396.94Z" style="fill:#fff"></path><path d="M64,399.89l-.21.12a1.61,1.61,0,0,1-.89.18,1.94,1.94,0,0,1-.94-.26l-1-.56a.76.76,0,0,1-.44-.55.51.51,0,0,1,.31-.51.38.38,0,0,1,.22,0,.48.48,0,0,1,.24.06.21.21,0,0,1,.11.14.15.15,0,0,1-.08.13.25.25,0,0,0-.16.25.39.39,0,0,0,.23.27l1,.57a1,1,0,0,0,.47.13,1,1,0,0,0,.44-.09l.21-.13a.25.25,0,0,0,.16-.25.38.38,0,0,0-.22-.27l-.25-.15a.19.19,0,0,1-.11-.13c0-.05,0-.09.08-.13a.38.38,0,0,1,.22,0,.48.48,0,0,1,.24.06l.24.14a1,1,0,0,0,.47.13.79.79,0,0,0,.45-.09l.21-.12a.27.27,0,0,0,.16-.26.42.42,0,0,0-.23-.27l-1-.57a1.12,1.12,0,0,0-.47-.13.84.84,0,0,0-.44.1.53.53,0,0,1-.23,0,.48.48,0,0,1-.23-.07.16.16,0,0,1-.11-.13s0-.09.08-.13a1.71,1.71,0,0,1,.89-.18,2.06,2.06,0,0,1,.94.26l1,.56a.76.76,0,0,1,.44.55.51.51,0,0,1-.31.51l-.21.12a1.43,1.43,0,0,1-.44.15,2.36,2.36,0,0,1-.53,0,.45.45,0,0,1,0,.3A.68.68,0,0,1,64,399.89Z" style="fill:#fff"></path><path d="M66.81,402.69a.52.52,0,0,1-.23-.07c-.07,0-.11-.08-.11-.13a.12.12,0,0,1,.08-.13l1.17-.68a1.78,1.78,0,0,1-.6-.22l-1-.56a.81.81,0,0,1-.45-.55.52.52,0,0,1,.32-.51l1.06-.61a.45.45,0,0,1,.22-.05.56.56,0,0,1,.23.07.16.16,0,0,1,.11.13.12.12,0,0,1-.07.13l-1.06.61a.27.27,0,0,0-.16.26.4.4,0,0,0,.22.27l1,.57a1,1,0,0,0,.47.13,1,1,0,0,0,.45-.09l1.06-.62a.36.36,0,0,1,.22,0,.44.44,0,0,1,.23.06c.07,0,.11.08.11.14s0,.09-.07.13l-3,1.71A.52.52,0,0,1,66.81,402.69Z" style="fill:#fff"></path><path d="M74.44,404.59a.07.07,0,0,0,0,.06.13.13,0,0,0,.06.07l1.35.78a.77.77,0,0,1,.44.54.52.52,0,0,1-.31.52l-.43.24a1.51,1.51,0,0,1-.88.18,2,2,0,0,1-.94-.25l-1-.57a.79.79,0,0,1-.44-.55.51.51,0,0,1,.31-.51.41.41,0,0,1,.23,0,.44.44,0,0,1,.23.06c.07,0,.11.09.11.14s0,.09-.08.13a.24.24,0,0,0-.15.25.34.34,0,0,0,.22.27l1,.57a1,1,0,0,0,.47.13.74.74,0,0,0,.44-.09l.43-.25a.23.23,0,0,0,.15-.25.34.34,0,0,0-.22-.27l-1.47-.85a.39.39,0,0,1-.22-.28c0-.1,0-.18.16-.25l1.06-.61a.38.38,0,0,1,.22-.05.41.41,0,0,1,.23.06l2.46,1.42a.22.22,0,0,1,.11.13.13.13,0,0,1-.08.13.38.38,0,0,1-.22.05.61.61,0,0,1-.24-.07l-2.08-1.2a.21.21,0,0,0-.12,0,.2.2,0,0,0-.11,0Z" style="fill:#fff"></path><path d="M78.75,407.2l1,.56a.81.81,0,0,1,.45.55.51.51,0,0,1-.32.51l-.42.25a1.73,1.73,0,0,1-.89.18,2,2,0,0,1-.94-.26l-1-.57a.76.76,0,0,1-.44-.54.5.5,0,0,1,.31-.51l1.7-1a1.55,1.55,0,0,1,.89-.18,2,2,0,0,1,.94.25l1,.57a.81.81,0,0,1,.45.54.53.53,0,0,1-.31.52.56.56,0,0,1-.46,0c-.07,0-.11-.09-.11-.14s0-.09.08-.13a.24.24,0,0,0,.15-.25.39.39,0,0,0-.22-.28l-1-.56a1.06,1.06,0,0,0-.47-.13.79.79,0,0,0-.45.09l-.54.31A1.92,1.92,0,0,1,78.75,407.2Zm-1.77.45c-.11.07-.17.15-.15.26a.37.37,0,0,0,.22.27l1,.56a1,1,0,0,0,.47.13.79.79,0,0,0,.45-.09l.42-.24a.26.26,0,0,0,.16-.26c0-.1-.09-.19-.23-.27l-1-.57a1.12,1.12,0,0,0-.47-.13.84.84,0,0,0-.44.1Z" style="fill:#fff"></path><path d="M84.4,410.58l-2.91.41h-.34l-.06,0,0,0a.27.27,0,0,1-.13-.13s0-.09.09-.13a.88.88,0,0,1,.34-.06c.93-.13,1.83-.26,2.69-.4a1.22,1.22,0,0,0,.26-.06l.2-.09.07,0a.27.27,0,0,0,.16-.26.4.4,0,0,0-.22-.27l-.49-.29-.25-.14-1-.56a.21.21,0,0,1-.11-.14c0-.05,0-.09.08-.13a.38.38,0,0,1,.22,0,.48.48,0,0,1,.24.06l1,.57.24.14.49.28a.81.81,0,0,1,.45.55.52.52,0,0,1-.32.51,1.88,1.88,0,0,1-.34.15Z" style="fill:#fff"></path><path d="M87.49,413.47l-.21.12a1.55,1.55,0,0,1-.89.18,2,2,0,0,1-.94-.25l-1-.57a.81.81,0,0,1-.45-.54.53.53,0,0,1,.32-.52l.21-.12a1.34,1.34,0,0,1,.44-.15,1.86,1.86,0,0,1,.53,0,.42.42,0,0,1,0-.31.63.63,0,0,1,.26-.25l.21-.13a1.73,1.73,0,0,1,.89-.18,2,2,0,0,1,.94.26l1,.57a.77.77,0,0,1,.45.54.51.51,0,0,1-.32.51l-.21.12a1.15,1.15,0,0,1-.44.16,3.09,3.09,0,0,1-.53,0,.44.44,0,0,1,0,.3A.65.65,0,0,1,87.49,413.47Zm1-1.14a.26.26,0,0,0,.16-.26.4.4,0,0,0-.22-.27l-1-.57a1,1,0,0,0-.47-.12.79.79,0,0,0-.45.09l-.21.12a.26.26,0,0,0-.16.26.42.42,0,0,0,.23.27l1,.56a1,1,0,0,0,.47.13.76.76,0,0,0,.44-.09Zm-1.48.86a.24.24,0,0,0,.15-.26.37.37,0,0,0-.22-.27l-1-.57a1.12,1.12,0,0,0-.47-.13.84.84,0,0,0-.44.1l-.21.12c-.12.07-.17.15-.16.25a.36.36,0,0,0,.22.27l1,.57a1,1,0,0,0,.47.13.79.79,0,0,0,.45-.09Z" style="fill:#fff"></path><path d="M93.29,418l-1-.56a.81.81,0,0,1-.45-.55.52.52,0,0,1,.32-.51.36.36,0,0,1,.22,0,.48.48,0,0,1,.24.06.24.24,0,0,1,.11.14.12.12,0,0,1-.08.12.27.27,0,0,0-.16.26.4.4,0,0,0,.22.27l1,.57a1.07,1.07,0,0,0,.48.13.76.76,0,0,0,.44-.09l.54-.31a2.2,2.2,0,0,1-.61-.22l-1-.57a.75.75,0,0,1-.44-.54.5.5,0,0,1,.31-.51l.42-.25a1.73,1.73,0,0,1,.89-.18,1.91,1.91,0,0,1,.94.26l1,.56a.76.76,0,0,1,.45.55.5.5,0,0,1-.31.51l-1.7,1a1.53,1.53,0,0,1-.89.18A1.94,1.94,0,0,1,93.29,418Zm3-1.18a.26.26,0,0,0,.16-.26.42.42,0,0,0-.23-.27l-1-.57a1,1,0,0,0-.47-.13.93.93,0,0,0-.44.09l-.43.25a.26.26,0,0,0-.16.26.42.42,0,0,0,.23.27l1,.56a1,1,0,0,0,.47.13.79.79,0,0,0,.45-.09Z" style="fill:#fff"></path><path d="M97,420.16l-1.47-.84a.21.21,0,0,1-.11-.14c0-.05,0-.09.08-.13a.36.36,0,0,1,.22,0,.41.41,0,0,1,.23.06l.5.28,2.12-1.22c.11-.07.17-.15.15-.26a.38.38,0,0,0-.21-.27h0c-.07,0-.11-.09-.11-.14s0-.09.08-.12a.38.38,0,0,1,.22,0,.48.48,0,0,1,.24.06h0a.79.79,0,0,1,.44.55.5.5,0,0,1-.31.51l-2.12,1.23.49.28a.21.21,0,0,1,.11.14.12.12,0,0,1-.08.12.41.41,0,0,1-.23.05A.62.62,0,0,1,97,420.16Z" style="fill:#fff"></path><path d="M100.15,422l-1-.57a.77.77,0,0,1-.44-.54.5.5,0,0,1,.31-.52l1.7-1a1.69,1.69,0,0,1,.88-.18,2.06,2.06,0,0,1,.95.26l1,.57a.76.76,0,0,1,.44.54.5.5,0,0,1-.31.51l-1.7,1a1.53,1.53,0,0,1-.89.18A2.05,2.05,0,0,1,100.15,422Zm-.56-.82,1,.57a.83.83,0,0,0,.29.1l.33-2.15-1.66,1a.25.25,0,0,0-.16.25A.38.38,0,0,0,99.59,421.19Zm3.53-.9-1-.57a1.1,1.1,0,0,0-.29-.1l-.32,2.16,1.66-1a.26.26,0,0,0,.15-.26A.37.37,0,0,0,103.12,420.29Z" style="fill:#fff"></path><path d="M103.82,424.13l-1.47-.85a.21.21,0,0,1-.11-.14c0-.05,0-.09.08-.13a.38.38,0,0,1,.22,0,.48.48,0,0,1,.24.06l.49.28,2.12-1.22c.12-.07.17-.15.16-.25a.42.42,0,0,0-.22-.28h0a.19.19,0,0,1-.11-.14c0-.05,0-.09.08-.12a.38.38,0,0,1,.22-.05.48.48,0,0,1,.24.07h0a.73.73,0,0,1,.44.54.5.5,0,0,1-.31.51l-2.12,1.23.49.28a.24.24,0,0,1,.11.14.12.12,0,0,1-.08.12.4.4,0,0,1-.22.05A.61.61,0,0,1,103.82,424.13Z" style="fill:#fff"></path><path d="M110.68,428.09l-1.47-.85a.24.24,0,0,1-.11-.14.15.15,0,0,1,.08-.13.48.48,0,0,1,.22,0,.48.48,0,0,1,.24.06l.49.29,2.12-1.23c.12-.07.17-.15.16-.25a.38.38,0,0,0-.22-.27h0a.22.22,0,0,1-.11-.13.14.14,0,0,1,.08-.13.48.48,0,0,1,.22-.05.61.61,0,0,1,.24.07h0a.73.73,0,0,1,.44.54.5.5,0,0,1-.31.51l-2.12,1.23.49.28a.21.21,0,0,1,.11.14.15.15,0,0,1-.08.13.38.38,0,0,1-.22,0A.61.61,0,0,1,110.68,428.09Z" style="fill:#fff"></path><path d="M115.15,429.19l-1-.56a1.06,1.06,0,0,0-.47-.13.79.79,0,0,0-.45.09l-.32.18a.08.08,0,0,0,0,.07.19.19,0,0,0,.06.07l2.09,1.2a.21.21,0,0,1,.11.14.12.12,0,0,1-.08.12.38.38,0,0,1-.22.05.61.61,0,0,1-.24-.07l-2.45-1.41c-.07,0-.11-.09-.11-.14s0-.09.08-.13l.63-.36a1.55,1.55,0,0,1,.89-.18,2,2,0,0,1,.94.25l1,.57a1,1,0,0,0,.47.13.79.79,0,0,0,.45-.09l.42-.25a.25.25,0,0,0,.16-.25.38.38,0,0,0-.23-.28l-1-.56a1,1,0,0,0-.47-.13.76.76,0,0,0-.44.09.38.38,0,0,1-.22,0,.48.48,0,0,1-.24-.06.22.22,0,0,1-.11-.13.12.12,0,0,1,.08-.13,1.53,1.53,0,0,1,.89-.18,2.05,2.05,0,0,1,.94.25l1,.57a.81.81,0,0,1,.45.54.53.53,0,0,1-.32.52l-.42.24a1.53,1.53,0,0,1-.89.18A1.94,1.94,0,0,1,115.15,429.19Z" style="fill:#fff"></path><path d="M117.55,432.05l-1.48-.85a.21.21,0,0,1-.11-.14.12.12,0,0,1,.08-.12.38.38,0,0,1,.22-.05.84.84,0,0,1,.24.06l.49.29,2.12-1.23c.12-.07.17-.15.16-.25a.4.4,0,0,0-.22-.27h0c-.07,0-.11-.08-.12-.13a.14.14,0,0,1,.08-.13.48.48,0,0,1,.22-.05.61.61,0,0,1,.24.07h0a.77.77,0,0,1,.44.54.48.48,0,0,1-.31.51l-2.12,1.23.49.28c.07,0,.11.09.11.14s0,.09-.08.13a.38.38,0,0,1-.22,0A.41.41,0,0,1,117.55,432.05Z" style="fill:#fff"></path><path d="M122.78,433.84l-.22.13a1.69,1.69,0,0,1-.88.18,2.1,2.1,0,0,1-1-.26l-1-.57a.76.76,0,0,1-.44-.54.5.5,0,0,1,.31-.51.38.38,0,0,1,.22,0,.84.84,0,0,1,.24.06.21.21,0,0,1,.11.14.12.12,0,0,1-.08.13c-.11.07-.17.15-.15.26a.37.37,0,0,0,.22.27l1,.56a1,1,0,0,0,.47.13.74.74,0,0,0,.44-.09l.22-.12a.26.26,0,0,0,.15-.26.37.37,0,0,0-.22-.27l-.24-.14a.22.22,0,0,1-.12-.14.12.12,0,0,1,.08-.12.38.38,0,0,1,.22-.05.48.48,0,0,1,.24.07l.24.14a1.06,1.06,0,0,0,.48.12.77.77,0,0,0,.44-.09l.21-.12c.12-.07.17-.15.16-.25a.42.42,0,0,0-.22-.28l-1-.56a1.07,1.07,0,0,0-.48-.13.77.77,0,0,0-.44.09.48.48,0,0,1-.22.05.61.61,0,0,1-.24-.07.19.19,0,0,1-.11-.14c0-.05,0-.09.08-.12a1.55,1.55,0,0,1,.89-.18,2,2,0,0,1,.94.25l1,.57a.77.77,0,0,1,.44.54.5.5,0,0,1-.31.52l-.21.12a1.34,1.34,0,0,1-.44.15,1.87,1.87,0,0,1-.53,0,.47.47,0,0,1,0,.31A.63.63,0,0,1,122.78,433.84Z" style="fill:#fff"></path><path d="M106.74,433.68l-.86-.49a.17.17,0,0,1-.07-.08.08.08,0,0,1,0-.08.25.25,0,0,1,.13,0,.32.32,0,0,1,.14,0l.28.17,1.24-.72c.07,0,.1-.08.09-.14a.21.21,0,0,0-.12-.16h0s-.06-.05-.06-.08a.07.07,0,0,1,0-.08.19.19,0,0,1,.13,0,.32.32,0,0,1,.14,0h0a.44.44,0,0,1,.26.32.3.3,0,0,1-.18.3l-1.24.71.29.17a.09.09,0,0,1,.06.08s0,.05,0,.07a.23.23,0,0,1-.13,0A.2.2,0,0,1,106.74,433.68Z" style="fill:#fff"></path><path d="M109.34,434.33l-.57-.33a.61.61,0,0,0-.27-.08.5.5,0,0,0-.26.06l-.19.1a0,0,0,0,0,0,0s0,0,0,0l1.22.7s.06.05.06.08a.07.07,0,0,1,0,.08.19.19,0,0,1-.13,0,.29.29,0,0,1-.14,0l-1.43-.83a.13.13,0,0,1-.07-.08s0-.05,0-.07l.37-.22a.93.93,0,0,1,.52-.1,1,1,0,0,1,.55.15l.57.33a.61.61,0,0,0,.28.07.44.44,0,0,0,.26-.05l.25-.14a.18.18,0,0,0,.09-.15.24.24,0,0,0-.14-.16l-.57-.33a.61.61,0,0,0-.27-.08.5.5,0,0,0-.26,0,.28.28,0,0,1-.13,0,.23.23,0,0,1-.14,0,.09.09,0,0,1-.06-.08s0-.05,0-.07a.93.93,0,0,1,.52-.11,1.21,1.21,0,0,1,.55.15l.57.33c.16.1.25.2.26.32a.29.29,0,0,1-.18.3l-.25.14a.91.91,0,0,1-.52.11A1.25,1.25,0,0,1,109.34,434.33Z" style="fill:#fff"></path><path d="M112.78,436.31l-.58-.33a.57.57,0,0,0-.27-.07.44.44,0,0,0-.26,0l-.19.11s0,0,0,0,0,0,0,0l1.22.71a.13.13,0,0,1,.07.08s0,.05,0,.07a.25.25,0,0,1-.13,0l-.14,0-1.43-.83a.09.09,0,0,1-.06-.08s0-.05,0-.07l.37-.22a.93.93,0,0,1,.52-.1,1.21,1.21,0,0,1,.55.15l.57.33a.64.64,0,0,0,.28.07.42.42,0,0,0,.26-.05l.25-.14a.14.14,0,0,0,.09-.15.24.24,0,0,0-.13-.16l-.57-.33a.61.61,0,0,0-.28-.08.53.53,0,0,0-.26.06.18.18,0,0,1-.13,0,.28.28,0,0,1-.13,0s-.07-.05-.07-.08a.08.08,0,0,1,0-.08.9.9,0,0,1,.51-.1,1,1,0,0,1,.55.15l.58.33a.45.45,0,0,1,.26.31.3.3,0,0,1-.18.3l-.25.15a.93.93,0,0,1-.52.1A1.21,1.21,0,0,1,112.78,436.31Z" style="fill:#fff"></path><path d="M115.51,438l-.12.07a.93.93,0,0,1-.52.1,1.21,1.21,0,0,1-.55-.15l-.57-.33a.46.46,0,0,1-.26-.32.29.29,0,0,1,.18-.29.28.28,0,0,1,.13,0,.23.23,0,0,1,.14,0,.09.09,0,0,1,.06.08s0,.05,0,.07a.14.14,0,0,0-.09.15.24.24,0,0,0,.13.16l.57.33a.61.61,0,0,0,.28.07.39.39,0,0,0,.25-.05l.13-.07a.14.14,0,0,0,.09-.15.24.24,0,0,0-.13-.16l-.14-.08s-.07-.05-.07-.08,0,0,0-.07a.23.23,0,0,1,.13,0,.2.2,0,0,1,.13,0l.15.08a.6.6,0,0,0,.27.07.42.42,0,0,0,.26-.05l.13-.07a.18.18,0,0,0,.09-.15.24.24,0,0,0-.13-.16l-.58-.33a.47.47,0,0,0-.27-.07.44.44,0,0,0-.26,0,.18.18,0,0,1-.13,0,.32.32,0,0,1-.14,0s-.06-.05-.06-.08a.07.07,0,0,1,0-.08.93.93,0,0,1,.52-.1,1.21,1.21,0,0,1,.55.15l.58.33a.43.43,0,0,1,.25.32.27.27,0,0,1-.18.29l-.12.08a.66.66,0,0,1-.26.08,1.06,1.06,0,0,1-.31,0,.28.28,0,0,1,0,.18A.47.47,0,0,1,115.51,438Z" style="fill:#fff"></path><path d="M109.53,435.64h0a.09.09,0,0,1,0-.12l2.49-1a.08.08,0,0,1,.12,0,.09.09,0,0,1,0,.12l-2.49,1A.09.09,0,0,1,109.53,435.64Z" style="fill:#fff"></path><path d="M139.31,424.09l-8.32,4.8a2.48,2.48,0,0,1-2.25,0l-10.16-5.78a.69.69,0,0,1,0-1.3L126.9,417a2.56,2.56,0,0,1,2.26,0c2.75,1.59,7.39,4.2,10.15,5.79A.69.69,0,0,1,139.31,424.09Z" style="fill:#15C9C7"></path><g style="clip-path:url(#freepik--clip-path--inject-121)"><path d="M139.31,424.09l-8.32,4.8a2.48,2.48,0,0,1-2.25,0l-10.16-5.78a.69.69,0,0,1,0-1.3L126.9,417a2.56,2.56,0,0,1,2.26,0c2.75,1.59,7.39,4.2,10.15,5.79A.69.69,0,0,1,139.31,424.09Z" style="fill:#fff;opacity:0.8"></path><polygon points="139 426.56 139.76 426.42 123.13 416.89 122.36 417.04 139 426.56" style="fill:#15C9C7"></polygon><polygon points="128.41 425.2 129.18 425.35 133.42 422.9 132.65 422.76 128.41 425.2" style="fill:#15C9C7"></polygon><polygon points="124.46 423.01 125.22 423.15 129.45 420.71 128.69 420.56 124.46 423.01" style="fill:#15C9C7"></polygon><polygon points="134.75 429.02 135.51 428.87 118.88 419.34 118.11 419.49 134.75 429.02" style="fill:#15C9C7"></polygon></g><path d="M86.23,423.05,46.49,400.1a2.78,2.78,0,0,0-2.51,0l-.17.1a.77.77,0,0,0,0,1.45l39.75,22.94a2.75,2.75,0,0,0,2.5,0l.17-.1A.76.76,0,0,0,86.23,423.05Z" style="fill:#455a64"></path><path d="M82.54,379a.47.47,0,0,1,.23,0,.36.36,0,0,1,.19,0l.63.36c.06,0,.09.08.09.13s0,.08-.09.12a3.84,3.84,0,0,1-1.78.36,5.12,5.12,0,0,1-1.12-.16,4.8,4.8,0,0,1-1.19-.5,2.7,2.7,0,0,1-.79-.64,1.15,1.15,0,0,1-.26-.66,1.09,1.09,0,0,1,.24-.65,2.5,2.5,0,0,1,.67-.6l.63-.39c.24-.13.46-.26.67-.36a4.72,4.72,0,0,1,1-.39,4.24,4.24,0,0,1,1.12-.13,4.94,4.94,0,0,1,1.14.14,4.21,4.21,0,0,1,1.1.46,3,3,0,0,1,.87.69,1.19,1.19,0,0,1,.28.64.82.82,0,0,1-.16.58,1.84,1.84,0,0,1-.47.45.37.37,0,0,1-.21.06.65.65,0,0,1-.21-.06l-.62-.36a.17.17,0,0,1-.1-.11c0-.05,0-.1.06-.14a.64.64,0,0,0,.2-.24.45.45,0,0,0,0-.28.78.78,0,0,0-.18-.33,2,2,0,0,0-.46-.34,2.07,2.07,0,0,0-.62-.25,2.64,2.64,0,0,0-.62-.08,2.67,2.67,0,0,0-1.16.29c-.2.11-.43.23-.66.37s-.45.26-.64.38a1.64,1.64,0,0,0-.36.32.58.58,0,0,0-.14.35.59.59,0,0,0,.13.36,1.48,1.48,0,0,0,.43.36,3.41,3.41,0,0,0,.6.26,3.17,3.17,0,0,0,.57.11,2.72,2.72,0,0,0,.5,0A1.64,1.64,0,0,0,82.54,379Z" style="fill:#fafafa"></path><path d="M90.42,379.28q1,.56,1,1.11c0,.37-.21.7-.75,1a3.21,3.21,0,0,1-1.22.41,3.67,3.67,0,0,1-1.35-.1l-.85,1.72a.09.09,0,0,1-.06.06.31.31,0,0,1-.17,0,.29.29,0,0,1-.17,0l-.66-.38c-.1-.06-.16-.11-.16-.17a.21.21,0,0,1,0-.14l.79-1.63-1-.59-1.81,1a.47.47,0,0,1-.42,0l-.62-.36a.15.15,0,0,1-.09-.12A.14.14,0,0,1,83,381l5-2.89a.47.47,0,0,1,.42,0Zm-3.61.74,1.13.65a2.36,2.36,0,0,0,.86.31,1.28,1.28,0,0,0,.85-.18c.29-.17.39-.33.32-.49a1.4,1.4,0,0,0-.56-.49l-1.12-.65Z" style="fill:#fafafa"></path><path d="M92.55,385.66a.13.13,0,0,1,0,.24l-.55.32a.41.41,0,0,1-.21,0,.39.39,0,0,1-.2,0l-3.4-2a.14.14,0,0,1-.09-.12.15.15,0,0,1,.09-.12l5-2.89a.33.33,0,0,1,.21,0,.36.36,0,0,1,.21,0l3.33,1.93a.13.13,0,0,1,0,.24l-.55.32a.41.41,0,0,1-.21.05.39.39,0,0,1-.2-.05l-2.51-1.44-1.23.71,2.33,1.34q.09.06.09.12a.14.14,0,0,1-.08.12l-.56.32a.39.39,0,0,1-.2.05.41.41,0,0,1-.21-.05l-2.33-1.34-1.29.74Z" style="fill:#fafafa"></path><path d="M100.3,385a3.06,3.06,0,0,1,.84.66,1.12,1.12,0,0,1,.28.65,1,1,0,0,1-.24.64,3,3,0,0,1-.71.62q-.54.35-1.14.66a4.89,4.89,0,0,1-1.06.4,4.22,4.22,0,0,1-1.11.14,4.31,4.31,0,0,1-1.12-.15,4.93,4.93,0,0,1-1.13-.47L93,387a.13.13,0,0,1,0-.24l5-2.89a.39.39,0,0,1,.2-.05.41.41,0,0,1,.21.05Zm-.87,2a1.27,1.27,0,0,0,.36-.32.56.56,0,0,0,.14-.35.6.6,0,0,0-.16-.37,1.68,1.68,0,0,0-.48-.39l-1-.6-3.48,2,1.07.62a2.61,2.61,0,0,0,.64.26,2.39,2.39,0,0,0,.63.09,2.49,2.49,0,0,0,.61-.08,3.09,3.09,0,0,0,.56-.21A11.56,11.56,0,0,0,99.43,387Z" style="fill:#fafafa"></path><path d="M98.41,390.16a.13.13,0,0,1,0-.24l5-2.89a.43.43,0,0,1,.21,0,.46.46,0,0,1,.21,0l.62.36c.06,0,.09.07.09.12a.14.14,0,0,1-.09.12l-5,2.89a.47.47,0,0,1-.42,0Z" style="fill:#fafafa"></path><path d="M109.49,390.29c.06,0,.09.08.09.13s0,.08-.09.12l-.55.31a.47.47,0,0,1-.42,0l-1.39-.8-4.25,2.45a.39.39,0,0,1-.2.05.41.41,0,0,1-.21-.05l-.63-.36q-.09-.06-.09-.12a.14.14,0,0,1,.09-.12l4.24-2.46-1.39-.8a.12.12,0,0,1,0-.24l.55-.32a.43.43,0,0,1,.21-.05.46.46,0,0,1,.21.05Z" style="fill:#fafafa"></path><path d="M111.67,395.83a.51.51,0,0,1,.24,0,.53.53,0,0,1,.19,0l.63.37a.15.15,0,0,1,.09.12s0,.08-.09.12a3.74,3.74,0,0,1-.8.27,3.84,3.84,0,0,1-1,.09,5.21,5.21,0,0,1-1.13-.16,4.8,4.8,0,0,1-1.19-.5,2.52,2.52,0,0,1-.78-.64,1,1,0,0,1,0-1.31,2.66,2.66,0,0,1,.67-.6l.64-.39.66-.36a4.72,4.72,0,0,1,1-.39,4.28,4.28,0,0,1,1.12-.13,4.94,4.94,0,0,1,1.14.14,4.42,4.42,0,0,1,1.11.46,2.8,2.8,0,0,1,.86.69,1.14,1.14,0,0,1,.29.65.86.86,0,0,1-.16.57,1.83,1.83,0,0,1-.47.45.37.37,0,0,1-.21.06.4.4,0,0,1-.21-.06l-.63-.36a.26.26,0,0,1-.1-.11c0-.05,0-.09.07-.14a.61.61,0,0,0,.19-.24.45.45,0,0,0,0-.28.78.78,0,0,0-.18-.33,1.75,1.75,0,0,0-.45-.34,2.18,2.18,0,0,0-.62-.25,2.72,2.72,0,0,0-.63-.08,2.47,2.47,0,0,0-.6.08,3,3,0,0,0-.55.21l-.67.37c-.24.13-.45.26-.63.38a1.5,1.5,0,0,0-.37.32.63.63,0,0,0-.13.35.53.53,0,0,0,.13.36,1.36,1.36,0,0,0,.43.36,3.11,3.11,0,0,0,.6.26,3.24,3.24,0,0,0,.56.11,2,2,0,0,0,.5,0A1.43,1.43,0,0,0,111.67,395.83Z" style="fill:#fafafa"></path><path d="M119.84,396.27c.08.05.12.09.12.14a.5.5,0,0,1-.09.18l-3,3.92-.05,0a.41.41,0,0,1-.21.05.39.39,0,0,1-.2-.05l-.56-.32c-.1-.06-.16-.12-.15-.17a.21.21,0,0,1,0-.12l.53-.69-2.45-1.41-1.19.3a1.17,1.17,0,0,1-.22,0,.57.57,0,0,1-.28-.09l-.56-.32a.17.17,0,0,1-.08-.12.14.14,0,0,1,.08-.12.09.09,0,0,1,.07,0l6.79-1.73a1.33,1.33,0,0,1,.3-.05.51.51,0,0,1,.26.07Zm-3,2.21,1.36-1.77-3.06.78Z" style="fill:#fafafa"></path><path d="M125,399.22q1,.55,1,1.11c0,.36-.21.7-.74,1a3.13,3.13,0,0,1-1.23.4,3.46,3.46,0,0,1-1.35-.09l-.85,1.72a.09.09,0,0,1-.06.06.29.29,0,0,1-.17,0,.31.31,0,0,1-.17,0l-.66-.38c-.1-.06-.15-.12-.15-.17a.26.26,0,0,1,0-.14l.79-1.63-1-.59-1.81,1a.41.41,0,0,1-.21.05.39.39,0,0,1-.2-.05l-.63-.37a.14.14,0,0,1-.09-.12s0-.08.09-.12l5-2.88a.47.47,0,0,1,.42,0Zm-3.6.74,1.12.65a2.56,2.56,0,0,0,.86.31,1.28,1.28,0,0,0,.85-.19c.29-.16.4-.32.32-.48a1.33,1.33,0,0,0-.56-.49l-1.12-.65Z" style="fill:#fafafa"></path><path d="M130.14,402.24a3.06,3.06,0,0,1,.84.66,1,1,0,0,1,.27.65.93.93,0,0,1-.24.64,2.73,2.73,0,0,1-.7.62q-.54.35-1.14.66a5,5,0,0,1-1.07.4,4.1,4.1,0,0,1-1.1.14,4.45,4.45,0,0,1-1.13-.15,4.86,4.86,0,0,1-1.12-.47l-2-1.13a.13.13,0,0,1,0-.24l5-2.89a.46.46,0,0,1,.21-.05.43.43,0,0,1,.21.05Zm-.87,2a1.64,1.64,0,0,0,.36-.32.54.54,0,0,0,.13-.35.64.64,0,0,0-.15-.38,1.86,1.86,0,0,0-.48-.38l-1-.6-3.49,2,1.08.62a2.46,2.46,0,0,0,.64.26,2.34,2.34,0,0,0,.63.09,2.66,2.66,0,0,0,1.17-.29A12.83,12.83,0,0,0,129.27,404.2Z" style="fill:#fafafa"></path></g></g><g id="freepik--Box--inject-121"><g id="freepik--box--inject-121"><polygon id="freepik--shadow--inject-121" points="465.28 358.21 412.47 388.7 363.73 360.56 416.54 330.07 465.28 358.21" style="opacity:0.1"></polygon><g id="freepik--box--inject-121"><polygon points="457.82 329.4 414.91 304.59 369.57 330.83 412.47 355.65 457.82 329.4" style="fill:#15C9C7"></polygon><polygon points="457.82 329.4 414.91 304.59 369.57 330.83 412.47 355.65 457.82 329.4" style="fill:#fff;opacity:0.7000000000000001"></polygon><polygon points="412.47 385.64 457.82 359.39 457.82 329.4 412.47 355.64 412.47 385.64" style="fill:#15C9C7"></polygon><polygon points="412.47 385.64 457.82 359.39 457.82 329.4 412.47 355.64 412.47 385.64" style="fill:#fff;opacity:0.55"></polygon><path d="M417.48,375.69a.76.76,0,0,1-.39-.1,1.19,1.19,0,0,1-.49-1.08v-3.18h0v-.24l.16,0,2.49-1.46v3.55a2.87,2.87,0,0,1-1.22,2.32A1.11,1.11,0,0,1,417.48,375.69Zm-.48-4.12v2.94a.81.81,0,0,0,.29.73.57.57,0,0,0,.54-.06,2.52,2.52,0,0,0,1-2V373h-.93l-.18-1.25Zm1.28,1h.58v-2.2l-1.49.88.73.13Z" style="fill:#455a64"></path><path d="M417.93,378.22a.2.2,0,0,1-.2-.2v-2.67a.2.2,0,0,1,.4,0V378A.2.2,0,0,1,417.93,378.22Z" style="fill:#455a64"></path><path d="M416.77,378.89a.2.2,0,0,1-.1-.37l2.32-1.34a.2.2,0,0,1,.27.07.21.21,0,0,1-.07.28l-2.32,1.34Z" style="fill:#455a64"></path><path d="M425,374.3a.4.4,0,0,1-.22-.06.51.51,0,0,1-.24-.48v-.55a.2.2,0,0,1,.4,0v.55c0,.08,0,.12,0,.13s.06,0,.13,0a1.2,1.2,0,0,0,.37-.9V369.4a.2.2,0,0,1,.4,0V373a1.52,1.52,0,0,1-.57,1.24A.66.66,0,0,1,425,374.3Z" style="fill:#455a64"></path><path d="M422.93,371.19v-.34a5.66,5.66,0,0,1,2.56-4.43,1.88,1.88,0,0,1,1.93-.17,1.9,1.9,0,0,1,.82,1.76v.11Zm3.75-4.74a2.06,2.06,0,0,0-1,.31,5.3,5.3,0,0,0-2.34,3.73l4.49-2.6a1.47,1.47,0,0,0-.62-1.3A1.09,1.09,0,0,0,426.68,366.45Z" style="fill:#455a64"></path><path d="M432.21,370.2a.2.2,0,0,1-.2-.2v-6.8a.2.2,0,0,1,.4,0V370A.2.2,0,0,1,432.21,370.2Z" style="fill:#455a64"></path><path d="M431.63,364.76l-.08,0a.2.2,0,0,1-.11-.26l.71-1.65.8.92a.2.2,0,0,1-.3.26l-.38-.43-.46,1.06A.21.21,0,0,1,431.63,364.76Z" style="fill:#455a64"></path><path d="M434.06,369.15a.2.2,0,0,1-.2-.2v-6.8a.2.2,0,1,1,.4,0V369A.2.2,0,0,1,434.06,369.15Z" style="fill:#455a64"></path><path d="M433.47,363.7h-.07a.21.21,0,0,1-.11-.27l.71-1.64.8.92a.2.2,0,0,1,0,.28.22.22,0,0,1-.29,0l-.37-.44-.46,1.06A.2.2,0,0,1,433.47,363.7Z" style="fill:#455a64"></path><polygon points="412.47 385.64 369.57 360.82 369.57 330.83 412.47 355.65 412.47 385.64" style="fill:#15C9C7"></polygon><polygon points="412.47 385.64 369.57 360.82 369.57 330.83 412.47 355.65 412.47 385.64" style="fill:#fff;opacity:0.4"></polygon><polygon points="387.58 345.79 390.52 347.48 390.52 342.93 387.58 341.23 387.58 345.79" style="fill:#37474f"></polygon><polygon points="390.52 342.93 435.86 316.68 432.93 314.99 387.58 341.23 390.52 342.93" style="fill:#455a64"></polygon><path d="M436,320.51l-12,6.92c-.21.12-.15.36.14.53l13.56,7.83a1,1,0,0,0,.92.07l12-6.92c.22-.13.16-.36-.13-.53l-13.56-7.83A1,1,0,0,0,436,320.51Z" style="fill:#fafafa"></path><path d="M442,332.28a.25.25,0,0,0,.22-.12.25.25,0,0,0-.09-.34l-11.26-6.5a.25.25,0,0,0-.25.43l11.26,6.5Z" style="fill:#e0e0e0"></path><path d="M440.79,333a.26.26,0,0,0,.22-.13.25.25,0,0,0-.09-.34L429.66,326a.26.26,0,0,0-.34.1.24.24,0,0,0,.09.33l11.26,6.5A.19.19,0,0,0,440.79,333Z" style="fill:#e0e0e0"></path><path d="M439.54,333.71a.25.25,0,0,0,.22-.12.25.25,0,0,0-.09-.34l-11.26-6.5a.25.25,0,0,0-.25.43l11.26,6.5Z" style="fill:#e0e0e0"></path><path d="M438.29,334.43a.25.25,0,0,0,.22-.12.25.25,0,0,0-.09-.34l-11.26-6.5a.25.25,0,0,0-.25.43l11.26,6.5A.27.27,0,0,0,438.29,334.43Z" style="fill:#e0e0e0"></path><polygon points="449.45 328.63 449.02 328.37 443.89 331.33 444.33 331.59 449.45 328.63" style="fill:#455a64"></polygon><polygon points="447.67 327.6 446.91 327.16 441.78 330.13 442.54 330.56 447.67 327.6" style="fill:#455a64"></polygon><polygon points="445.89 326.57 445.45 326.31 440.32 329.27 440.76 329.53 445.89 326.57" style="fill:#455a64"></polygon><polygon points="444.56 325.79 443.67 325.29 438.54 328.25 439.43 328.75 444.56 325.79" style="fill:#455a64"></polygon><polygon points="442.33 324.51 441.89 324.25 436.76 327.22 437.2 327.47 442.33 324.51" style="fill:#455a64"></polygon><polygon points="441.05 323.76 440.11 323.23 434.98 326.19 435.92 326.72 441.05 323.76" style="fill:#455a64"></polygon><polygon points="438.76 322.45 438.32 322.2 433.19 325.16 433.63 325.41 438.76 322.45" style="fill:#455a64"></polygon><polygon points="437.75 321.86 437.53 321.73 432.4 324.69 432.62 324.82 437.75 321.86" style="fill:#455a64"></polygon><polygon points="439.55 322.93 439.33 322.81 434.2 325.77 434.42 325.89 439.55 322.93" style="fill:#455a64"></polygon><polygon points="443.16 325 442.94 324.87 437.81 327.83 438.03 327.96 443.16 325" style="fill:#455a64"></polygon><polygon points="445.12 326.13 444.9 326.01 439.77 328.97 439.99 329.09 445.12 326.13" style="fill:#455a64"></polygon><polygon points="446.51 326.96 446.29 326.84 441.16 329.8 441.38 329.92 446.51 326.96" style="fill:#455a64"></polygon><polygon points="448.46 328.05 448.24 327.92 443.11 330.88 443.33 331.01 448.46 328.05" style="fill:#455a64"></polygon><polygon points="436.98 321.42 436.54 321.17 431.41 324.13 431.85 324.38 436.98 321.42" style="fill:#455a64"></polygon><path d="M443.89,356.41v7.52c0,.29.2.41.45.27l11.74-6.78a1,1,0,0,0,.46-.79V349.1c0-.29-.2-.4-.46-.26l-11.74,6.78A1,1,0,0,0,443.89,356.41Z" style="fill:#fafafa"></path><polygon points="455.81 349.92 455.43 350.14 455.43 356.98 455.81 356.76 455.81 349.92" style="fill:#455a64"></polygon><polygon points="454.27 350.81 453.62 351.19 453.62 358.03 454.27 357.65 454.27 350.81" style="fill:#455a64"></polygon><polygon points="452.73 351.7 452.35 351.92 452.35 358.76 452.73 358.54 452.73 351.7" style="fill:#455a64"></polygon><polygon points="451.56 352.36 450.8 352.81 450.8 359.65 451.56 359.2 451.56 352.36" style="fill:#455a64"></polygon><polygon points="449.64 353.48 449.26 353.7 449.26 360.54 449.64 360.32 449.64 353.48" style="fill:#455a64"></polygon><polygon points="448.53 354.11 447.71 354.59 447.71 361.43 448.53 360.95 448.53 354.11" style="fill:#455a64"></polygon><polygon points="446.55 355.26 446.17 355.48 446.17 362.32 446.55 362.1 446.55 355.26" style="fill:#455a64"></polygon><polygon points="445.67 355.76 445.48 355.87 445.48 362.71 445.67 362.6 445.67 355.76" style="fill:#455a64"></polygon><polygon points="447.25 354.89 447.06 355 447.06 361.84 447.25 361.73 447.25 354.89" style="fill:#455a64"></polygon><polygon points="450.36 353.07 450.17 353.18 450.17 360.02 450.36 359.91 450.36 353.07" style="fill:#455a64"></polygon><polygon points="452.07 352.09 451.88 352.2 451.88 359.04 452.07 358.93 452.07 352.09" style="fill:#455a64"></polygon><polygon points="453.29 351.42 453.1 351.53 453.1 358.36 453.29 358.25 453.29 351.42" style="fill:#455a64"></polygon><polygon points="454.95 350.41 454.76 350.52 454.76 357.36 454.95 357.25 454.95 350.41" style="fill:#455a64"></polygon><polygon points="445.01 356.15 444.63 356.37 444.63 363.21 445.01 362.99 445.01 356.15" style="fill:#455a64"></polygon></g></g></g><g id="freepik--Label--inject-121"><g id="freepik--label--inject-121"><path d="M384,395.74,380,374.51l-36.77-2.36L279,409.2v2.67l40.86,23.59L384,398.4Zm-16.27-9.58a8.66,8.66,0,0,1-7.84,0,3.88,3.88,0,0,1-1.11-.93,3.73,3.73,0,0,1,1.11-.93,8.63,8.63,0,0,1,7.84,0,3.9,3.9,0,0,1,1.11.94A3.88,3.88,0,0,1,367.77,386.16Z" style="fill:#37474f"></path><path d="M384,395.74,380,374.51l-36.77-2.36L279,409.2l40.86,23.6Zm-24.11-14.11a8.66,8.66,0,0,1,7.84,0c2.17,1.25,2.17,3.28,0,4.53a8.66,8.66,0,0,1-7.84,0C357.76,384.91,357.76,382.88,359.93,381.63Z" style="fill:#455a64"></path><path d="M367.77,381.63a8.6,8.6,0,0,0-7.84,0c-1.68,1-2,2.41-1.1,3.59a3.85,3.85,0,0,1,1.1-.93,8.66,8.66,0,0,1,7.84,0,4.15,4.15,0,0,1,1.1.93C369.82,384.05,369.45,382.6,367.77,381.63Zm.89,3.84a2.62,2.62,0,0,0,.22-.25h0C368.8,385.3,368.74,385.39,368.66,385.47Z" style="fill:#263238"></path><polygon points="319.86 435.46 319.86 432.8 279 409.2 279 411.87 319.86 435.46" style="fill:#263238"></polygon><path d="M295.77,406.09l.22.05,4.12,1.34-3.67-3.08a.15.15,0,0,1-.08-.15.21.21,0,0,1,.11-.12l.32-.19a.43.43,0,0,1,.36,0l.06,0,4,3.49a.5.5,0,0,1,.19.25c0,.07,0,.14-.17.22l-.32.19a.71.71,0,0,1-.4.09,1.47,1.47,0,0,1-.44-.1L296.63,407l2,2a.58.58,0,0,1,.17.25c0,.08,0,.16-.16.23l-.33.19a.7.7,0,0,1-.38.1,1.66,1.66,0,0,1-.44-.11l-6-2.33-.07,0a.14.14,0,0,1-.08-.11s0-.07.08-.1l.32-.19a.65.65,0,0,1,.21-.06.68.68,0,0,1,.27,0l5.33,2.12-2.33-2.38a.41.41,0,0,1-.08-.12c0-.06,0-.11.12-.17l.28-.16A.43.43,0,0,1,295.77,406.09Z" style="fill:#fafafa"></path><path d="M299.87,404.62a2.63,2.63,0,0,1-.7-.59,1,1,0,0,1-.26-.66,1.07,1.07,0,0,1,.22-.67,2.28,2.28,0,0,1,.78-.65,3.93,3.93,0,0,1,1.13-.45,4.67,4.67,0,0,1,1.17-.13,4.35,4.35,0,0,1,1.14.15,4.73,4.73,0,0,1,1,.4c.5.27,1,.55,1.45.84a2.42,2.42,0,0,1,.69.59,1.17,1.17,0,0,1,.27.66,1,1,0,0,1-.22.67,2.4,2.4,0,0,1-.78.65,4,4,0,0,1-1.12.45,4.67,4.67,0,0,1-1.17.13,4.82,4.82,0,0,1-1.14-.16,4.33,4.33,0,0,1-1-.4C300.82,405.19,300.34,404.91,299.87,404.62Zm3.76-2.13a3.69,3.69,0,0,0-.79-.31,3.08,3.08,0,0,0-1.52,0,2.71,2.71,0,0,0-.68.28,1.63,1.63,0,0,0-.48.39.65.65,0,0,0-.18.43.69.69,0,0,0,.16.45,1.83,1.83,0,0,0,.54.45l.67.41.7.38a3.28,3.28,0,0,0,.79.32,3.07,3.07,0,0,0,.78.09,2.59,2.59,0,0,0,.74-.1A3.14,3.14,0,0,0,305,405a1.83,1.83,0,0,0,.49-.39.77.77,0,0,0,.18-.43.71.71,0,0,0-.17-.45,2.38,2.38,0,0,0-.54-.46l-.67-.4Z" style="fill:#fafafa"></path><path d="M305.62,398.85a4.08,4.08,0,0,1,.85-.38,4.18,4.18,0,0,1,.92-.19,3.8,3.8,0,0,1,.95.06,3,3,0,0,1,.92.35c.44.25.68.52.72.79a1,1,0,0,1-.29.81l3.37.53.12,0a.13.13,0,0,1,.07.11s0,.07-.07.1l-.35.2a.51.51,0,0,1-.32.09h-.25l-3.26-.52-1.4.81,2.08,1.2a.14.14,0,0,1,.09.12.15.15,0,0,1-.09.13l-.34.19a.38.38,0,0,1-.22.06.35.35,0,0,1-.21-.06l-5.26-3c-.06,0-.09-.08-.09-.13s0-.09.09-.13Zm1.25,2.36,1.38-.8c.39-.22.61-.44.67-.66s-.08-.42-.43-.62a1.64,1.64,0,0,0-1.06-.23,3,3,0,0,0-1.12.39l-1.38.8Z" style="fill:#fafafa"></path><path d="M317.22,397.88a.51.51,0,0,1,.22-.05.48.48,0,0,1,.22.05l.3.17a.16.16,0,0,1,.08.13.14.14,0,0,1-.08.12l-3.32,1.92a.48.48,0,0,1-.22,0,.4.4,0,0,1-.22-.06l-5.25-3a.15.15,0,0,1-.09-.13.14.14,0,0,1,.09-.12l.33-.2a.51.51,0,0,1,.44,0l4.74,2.74Z" style="fill:#fafafa"></path><path d="M317.17,393.73l.22,0,4.12,1.34L317.84,392c-.06-.05-.09-.1-.07-.15a.23.23,0,0,1,.1-.12l.33-.19a.42.42,0,0,1,.36,0l.05.05,4,3.48a.45.45,0,0,1,.19.25c0,.07,0,.15-.16.22l-.33.19a.66.66,0,0,1-.39.09,2,2,0,0,1-.45-.09L318,394.63l2,2a.57.57,0,0,1,.16.26c0,.08,0,.15-.16.22l-.32.19a.64.64,0,0,1-.39.1,1.6,1.6,0,0,1-.43-.11l-6-2.33-.08,0c-.05,0-.07-.06-.07-.1a.12.12,0,0,1,.07-.11l.33-.19a.52.52,0,0,1,.2-.06.56.56,0,0,1,.27,0l5.33,2.11-2.33-2.37a.5.5,0,0,1-.07-.13c0-.06,0-.11.11-.17l.28-.16A.46.46,0,0,1,317.17,393.73Z" style="fill:#fafafa"></path><path d="M325.32,394.05a.51.51,0,0,1-.44,0l-5.26-3a.14.14,0,0,1-.09-.12c0-.05,0-.09.09-.13l.34-.19a.38.38,0,0,1,.22-.05.4.4,0,0,1,.22.05l5.26,3a.15.15,0,0,1,0,.26Z" style="fill:#fafafa"></path><path d="M330.07,390.46a.51.51,0,0,1,.22,0,.48.48,0,0,1,.22,0l.3.17a.15.15,0,0,1,.09.13.14.14,0,0,1-.09.12l-3.32,1.92a.48.48,0,0,1-.22.05.51.51,0,0,1-.22-.05l-5.25-3a.15.15,0,0,1-.09-.13.14.14,0,0,1,.09-.12l.33-.2a.51.51,0,0,1,.44,0l4.75,2.74Z" style="fill:#fafafa"></path><path d="M332.81,385.69l.65.37c.18.11.4.23.63.38a2.44,2.44,0,0,1,.75.63,1,1,0,0,1,.22.68,1.09,1.09,0,0,1-.28.66,2.51,2.51,0,0,1-.77.62l-1.91,1.11a.51.51,0,0,1-.44,0l-5.26-3a.15.15,0,0,1-.09-.13.14.14,0,0,1,.09-.12l1.87-1.08a4.72,4.72,0,0,1,1.08-.45,4.3,4.3,0,0,1,1.17-.17,4.68,4.68,0,0,1,1.18.12A4.38,4.38,0,0,1,332.81,385.69Zm-.73.48a3.28,3.28,0,0,0-.66-.28,3.1,3.1,0,0,0-.76-.12,3,3,0,0,0-.83.09,2.94,2.94,0,0,0-.86.35l-1.28.74,4.23,2.44,1.32-.76a1.81,1.81,0,0,0,.61-.5.68.68,0,0,0,.14-.47.74.74,0,0,0-.23-.42,2.37,2.37,0,0,0-.48-.38l-.32-.19-.27-.16-.28-.16Z" style="fill:#fafafa"></path><path d="M340.26,384.58a.48.48,0,0,1,.22-.05.51.51,0,0,1,.22.05l.29.17a.15.15,0,0,1,.09.13.14.14,0,0,1-.09.12l-3.29,1.9a.51.51,0,0,1-.44,0l-5.26-3c-.06,0-.09-.08-.09-.13s0-.09.09-.13l3.23-1.86a.48.48,0,0,1,.22-.05.51.51,0,0,1,.22.05l.29.17c.06,0,.09.08.09.13s0,.09-.09.13l-2.67,1.54,1.72,1,2.49-1.44a.48.48,0,0,1,.22,0,.51.51,0,0,1,.22,0l.29.17a.15.15,0,0,1,.09.13.14.14,0,0,1-.09.12l-2.49,1.44,1.78,1Z" style="fill:#fafafa"></path><path d="M308.46,407.31a1,1,0,0,1,.52-.12,1,1,0,0,1,.51.12l1.36.79a.31.31,0,0,1,0,.59l-6.1,3.52,3.71,2.14,5.71-3.3a1,1,0,0,1,.52-.12,1,1,0,0,1,.51.12l1.36.79a.31.31,0,0,1,0,.59l-5.71,3.3,4.37,2.53a.31.31,0,0,1,0,.59l-1.54.89a1.11,1.11,0,0,1-1,0l-12.34-7.12a.32.32,0,0,1,0-.6Z" style="fill:#fafafa"></path><path d="M316.64,402.59a10.05,10.05,0,0,1,4.74-1.45,7.91,7.91,0,0,1,4.31,1.05,3.67,3.67,0,0,1,1.74,1.75,2,2,0,0,1-.42,1.93l7.36,1.2a.71.71,0,0,1,.26.09q.18.1.18.24a.27.27,0,0,1-.18.24l-1.62.94a1.43,1.43,0,0,1-.74.22,3.32,3.32,0,0,1-.6,0l-6.95-1.13-2.54,1.47,4.45,2.57a.35.35,0,0,1,.21.3c0,.12-.07.21-.21.3l-1.55.89a1,1,0,0,1-.51.12,1,1,0,0,1-.52-.12L311.71,406a.31.31,0,0,1,0-.59Zm3.15,5.13,2.77-1.6a3.19,3.19,0,0,0,1.36-1.22c.17-.4-.09-.8-.81-1.22a3.1,3.1,0,0,0-2.08-.45,6.3,6.3,0,0,0-2.1.8l-2.77,1.59Z" style="fill:#fafafa"></path><path d="M343.88,399.55a1,1,0,0,1,.52-.12,1,1,0,0,1,.51.12l1.36.78a.32.32,0,0,1,0,.6l-8.39,4.84a1,1,0,0,1-.51.12,1,1,0,0,1-.52-.12l-12.34-7.13a.31.31,0,0,1,0-.59l8.23-4.76a1,1,0,0,1,.52-.12,1,1,0,0,1,.51.12l1.36.79a.31.31,0,0,1,0,.59L329,398.23l3,1.76,5.75-3.32a1,1,0,0,1,.51-.12,1,1,0,0,1,.52.12l1.36.78a.32.32,0,0,1,0,.6l-5.75,3.32,3.17,1.83Z" style="fill:#fafafa"></path><path d="M355.67,392.74a1,1,0,0,1,.52-.12,1,1,0,0,1,.51.12l1.36.78c.14.09.21.18.21.3a.35.35,0,0,1-.21.3L349.67,399a1,1,0,0,1-.52.12,1,1,0,0,1-.51-.12l-12.34-7.12a.32.32,0,0,1,0-.6l8.23-4.75a1,1,0,0,1,.52-.12,1,1,0,0,1,.51.12l1.36.78a.35.35,0,0,1,.21.3c0,.12-.07.21-.21.3l-6.17,3.56,3,1.75,5.75-3.32a1,1,0,0,1,.51-.12,1,1,0,0,1,.52.12l1.35.79c.15.08.22.18.21.29a.35.35,0,0,1-.21.3l-5.75,3.32,3.17,1.83Z" style="fill:#fafafa"></path><path d="M317.3,420.9a6.05,6.05,0,0,1,1.4-.59,6.81,6.81,0,0,1,1.33-.24,5.14,5.14,0,0,1,1.13.05,2.92,2.92,0,0,1,.83.25c.09,0,.13.09.12.16s0,.11-.12.16l-.72.41a.72.72,0,0,1-.32.11,1.31,1.31,0,0,1-.34,0,3.49,3.49,0,0,0-.91,0,3.49,3.49,0,0,0-1.57.75,1,1,0,0,0-.25.34.38.38,0,0,0,0,.31.46.46,0,0,0,.24.26,1.32,1.32,0,0,0,.48.17,2.09,2.09,0,0,0,.59,0,7.3,7.3,0,0,0,.8-.24l1.16-.42a13.88,13.88,0,0,1,1.37-.43,5.71,5.71,0,0,1,1.16-.17,4,4,0,0,1,1,.09,3.17,3.17,0,0,1,.88.35,1.68,1.68,0,0,1,.65.61.94.94,0,0,1,.09.73,1.79,1.79,0,0,1-.48.79,4.46,4.46,0,0,1-1.08.81,6.89,6.89,0,0,1-1.23.56,7.74,7.74,0,0,1-1.33.3,4.92,4.92,0,0,1-1.27,0,3.36,3.36,0,0,1-1.1-.31c-.09,0-.13-.1-.12-.16a.19.19,0,0,1,.12-.16l.72-.41a.75.75,0,0,1,.32-.12,1,1,0,0,1,.34,0l.44,0a3,3,0,0,0,.51,0,3.25,3.25,0,0,0,.61-.16,4,4,0,0,0,.71-.33A5.24,5.24,0,0,0,324,424a1.49,1.49,0,0,0,.35-.38.54.54,0,0,0,.08-.36.46.46,0,0,0-.26-.3,1,1,0,0,0-.51-.13,2.72,2.72,0,0,0-.68.11c-.26.07-.57.17-.92.3l-1.23.44a9.54,9.54,0,0,1-1.18.35,5.79,5.79,0,0,1-1.05.13,3.69,3.69,0,0,1-.95-.12,3.63,3.63,0,0,1-.92-.39,1.58,1.58,0,0,1-.64-.61,1,1,0,0,1-.11-.71,1.81,1.81,0,0,1,.42-.74A3.84,3.84,0,0,1,317.3,420.9Z" style="fill:#fafafa"></path><path d="M327.16,415.33a.57.57,0,0,1,.27-.07.58.58,0,0,1,.28.07l6.61,3.82a.16.16,0,0,1,.11.15.17.17,0,0,1-.11.16l-.83.48a.47.47,0,0,1-.28.07.47.47,0,0,1-.27-.07l-2.7-1.56-3.09,1.79,2.7,1.56a.18.18,0,0,1,.11.16.21.21,0,0,1-.11.16l-.83.47a.47.47,0,0,1-.27.07.51.51,0,0,1-.28-.07l-6.61-3.81c-.08,0-.12-.1-.12-.16a.19.19,0,0,1,.12-.16l.83-.48a.54.54,0,0,1,.27-.06.61.61,0,0,1,.28.06l2.63,1.52,3.09-1.79-2.63-1.51a.19.19,0,0,1-.11-.16.17.17,0,0,1,.11-.16Z" style="fill:#fafafa"></path><path d="M336.47,418.22a.51.51,0,0,1-.28.07.45.45,0,0,1-.27-.07l-6.61-3.81c-.08-.05-.12-.1-.12-.16a.19.19,0,0,1,.12-.16l.83-.48a.54.54,0,0,1,.27-.07.61.61,0,0,1,.28.07l6.61,3.82a.16.16,0,0,1,0,.31Z" style="fill:#fafafa"></path><path d="M335,410.79a5.44,5.44,0,0,1,2.5-.78,4.33,4.33,0,0,1,2.4.59c.75.44,1.09.9,1,1.39s-.5,1-1.33,1.45l-1.64.95,2.29,1.32a.18.18,0,0,1,.11.16.21.21,0,0,1-.11.16l-.83.47a.6.6,0,0,1-.56,0l-6.61-3.81a.19.19,0,0,1-.11-.16.19.19,0,0,1,.12-.16Zm1.68,2.86,1.59-.92a1.42,1.42,0,0,0,.7-.67q.12-.33-.45-.66a1.81,1.81,0,0,0-1.14-.26,3.24,3.24,0,0,0-1.16.41l-1.58.92Z" style="fill:#fafafa"></path><path d="M341.77,406.89a5.58,5.58,0,0,1,2.51-.77,4.32,4.32,0,0,1,2.39.59c.75.43,1.1.89,1,1.39s-.51,1-1.33,1.45l-1.64.95,2.28,1.31a.21.21,0,0,1,.11.16.18.18,0,0,1-.11.16l-.83.48a.58.58,0,0,1-.28.07.57.57,0,0,1-.27-.07L339,408.79a.17.17,0,0,1-.11-.16.16.16,0,0,1,.11-.15Zm1.69,2.87,1.58-.92a1.49,1.49,0,0,0,.71-.67c.07-.22-.08-.44-.46-.66a1.78,1.78,0,0,0-1.14-.26,3.19,3.19,0,0,0-1.15.41l-1.59.92Z" style="fill:#fafafa"></path><path d="M352.93,408.72a.54.54,0,0,1-.27.06.61.61,0,0,1-.28-.06l-6.61-3.82a.18.18,0,0,1-.11-.16.21.21,0,0,1,.11-.16l.83-.48a.58.58,0,0,1,.28-.06.57.57,0,0,1,.27.06l6.61,3.82a.17.17,0,0,1,0,.32Z" style="fill:#fafafa"></path><path d="M360.28,404.48a.81.81,0,0,1-.36.1h-.27l-7.13-.8,4.22,2.43a.18.18,0,0,1,.11.16.19.19,0,0,1-.11.16l-.83.48a.55.55,0,0,1-.28.06.57.57,0,0,1-.27-.06l-6.61-3.82a.17.17,0,0,1-.11-.16.19.19,0,0,1,.11-.16l.71-.41a.7.7,0,0,1,.36-.1h.28l7.12.81L353,400.72a.18.18,0,0,1-.11-.16q0-.09.12-.15l.82-.48a.59.59,0,0,1,.56,0l6.61,3.81a.21.21,0,0,1,.11.16.18.18,0,0,1-.11.16Z" style="fill:#fafafa"></path><path d="M358.1,400.52a3.15,3.15,0,0,1-.89-.77,1.24,1.24,0,0,1-.28-.85,1.6,1.6,0,0,1,.39-.88,4.25,4.25,0,0,1,1.13-.87,6.22,6.22,0,0,1,1.7-.72,7,7,0,0,1,1.47-.21,4.43,4.43,0,0,1,1.15.1,4.13,4.13,0,0,1,.73.24c.09.05.13.1.13.17a.21.21,0,0,1-.13.15l-.83.48a.39.39,0,0,1-.23.07.79.79,0,0,1-.22,0l-.28,0a3.32,3.32,0,0,0-.56,0,5.29,5.29,0,0,0-.77.14,3.78,3.78,0,0,0-.88.37c-.51.3-.78.61-.81.95s.17.65.61.93l.82.49.85.47a3.31,3.31,0,0,0,1.73.43,3.51,3.51,0,0,0,1.61-.49,3.58,3.58,0,0,0,.61-.45.87.87,0,0,0,.28-.47.66.66,0,0,0-.12-.49,2.12,2.12,0,0,0-.62-.5l-.08-.05-1.25.73a.58.58,0,0,1-.28.06.45.45,0,0,1-.27-.07l-.73-.41a.21.21,0,0,1-.11-.16.18.18,0,0,1,.11-.16l2.36-1.36a.45.45,0,0,1,.27-.07.51.51,0,0,1,.28.07l1.12.65a3.24,3.24,0,0,1,.94.76,1.33,1.33,0,0,1,.31.85,1.49,1.49,0,0,1-.39.9,4.23,4.23,0,0,1-1.15.91,6.51,6.51,0,0,1-1.56.66,6.34,6.34,0,0,1-1.52.22,5.83,5.83,0,0,1-2.82-.71l-.44-.23-.49-.28-.48-.28Z" style="fill:#fafafa"></path></g></g><g id="freepik--money-symbol--inject-121"><g id="freepik--money-symbol--inject-121"><polygon points="281.43 420.63 281.43 425.78 279.68 427.63 276.43 431.04 276.43 425.68 281.43 420.63" style="fill:#15C9C7"></polygon><polygon points="281.43 420.63 281.43 425.78 279.68 427.63 276.43 431.04 276.43 425.68 281.43 420.63" style="opacity:0.30000000000000004"></polygon><path d="M276.43,425.67v3a28.62,28.62,0,0,1-5,1.42,5.39,5.39,0,0,1-2.14-.08,5,5,0,0,1-1-.42c-1.24-.74-1.44-1.84.92-3.2A8.24,8.24,0,0,1,276.43,425.67Z" style="fill:#15C9C7"></path><path d="M276.43,425.67v3a28.62,28.62,0,0,1-5,1.42,5.39,5.39,0,0,1-2.14-.08,5,5,0,0,1-1-.42c-1.24-.74-1.44-1.84.92-3.2A8.24,8.24,0,0,1,276.43,425.67Z" style="opacity:0.45"></path><path d="M299.73,440.3v4.44L294.1,448l-4.16-2.41a21.2,21.2,0,0,1-16.13.73v-4.45l2.56-2.54-2.56.71c-4,.93-8.27,1-12.57-1.44-2.52-1.45-3.69-3-3.69-4.69v-4.33l.46-1.89-1.54-.89v-4.45l4.17,2.41c-2,1.57-3.12,3.2-3.09,4.77v.05c.05,1.6,1.23,3.15,3.69,4.58,5.48,3.16,10.91,2.12,15.88.52,4.62-1.51,8-3.28,10.66-1.74,1.65.95,1.15,2.12-.71,3.19a9.23,9.23,0,0,1-7.94.46l-5.32,5.28a18.43,18.43,0,0,0,2.94.86,21.92,21.92,0,0,0,13.19-1.58l4.16,2.41Z" style="fill:#15C9C7"></path><path d="M257.55,429.52v.05c.05,1.6,1.23,3.15,3.69,4.58,5.48,3.16,10.91,2.12,15.88.52,4.62-1.51,8-3.28,10.66-1.74,1.65.95,1.15,2.12-.71,3.19a9.23,9.23,0,0,1-7.94.46l-5.32,5.28a18.43,18.43,0,0,0,2.94.86,21.92,21.92,0,0,0,13.19-1.58l4.16,2.41,5.63-3.25v4.44L294.1,448l-4.16-2.41a21.2,21.2,0,0,1-16.13.73v-4.45l2.56-2.54-2.56.71c-4,.93-8.27,1-12.57-1.44-2.52-1.45-3.69-3-3.69-4.69v-4.33l.46-1.89" style="opacity:0.2"></path><path d="M256.47,422.34v4.45l1.54.89h0a9,9,0,0,1,2.64-2.94Z" style="opacity:0.45"></path><path d="M298.8,437.39a5.2,5.2,0,0,1-.42,2.12l-2.82-1.62a5.54,5.54,0,0,0,3.2-4.28C298.78,434.83,298.8,437.27,298.8,437.39Z" style="fill:#15C9C7"></path><g style="opacity:0.30000000000000004"><path d="M298.8,437.39a5.2,5.2,0,0,1-.42,2.12l-2.82-1.62a5.54,5.54,0,0,0,3.2-4.28C298.78,434.83,298.8,437.27,298.8,437.39Z"></path></g><path d="M298.79,439.76l-3.22-1.87a5.5,5.5,0,0,0,3.22-4.94,2.81,2.81,0,0,0,0-.43c-.14-1.54-1.27-3-3.6-4.37v0a14.8,14.8,0,0,0-7.49-1.95H287l-.67.05a5.87,5.87,0,0,0-.59.05l-.23,0a3.06,3.06,0,0,0-.45.06,27.92,27.92,0,0,0-3.64.75c-.57.15-1.15.32-1.7.5-.81.25-1.61.52-2.36.77l-.89.31a28,28,0,0,1-5,1.42,5.25,5.25,0,0,1-2.15-.08,4.61,4.61,0,0,1-1-.42c-1.26-.73-1.45-1.83.9-3.2a8.26,8.26,0,0,1,7.25-.75l5-5.05a21.43,21.43,0,0,0-15.11.83l-4.17-2.4-5.68,3.28,4.17,2.4c-2,1.58-3.12,3.21-3.09,4.79v0c.05,1.61,1.22,3.15,3.69,4.58,5.49,3.17,10.92,2.12,15.88.51,4.62-1.5,8-3.28,10.65-1.74,1.66,1,1.16,2.12-.7,3.19a9.16,9.16,0,0,1-7.94.47l-5.33,5.28a20.06,20.06,0,0,0,2.95.87,19.15,19.15,0,0,0,5.13.37,23.56,23.56,0,0,0,8.05-2l4.17,2.41,5.63-3.25Z" style="fill:#15C9C7"></path><g style="opacity:0.30000000000000004"><path d="M298.79,439.76l-3.22-1.87a5.5,5.5,0,0,0,3.22-4.94,2.81,2.81,0,0,0,0-.43c-.14-1.54-1.27-3-3.6-4.37v0a14.8,14.8,0,0,0-7.49-1.95H287l-.67.05a5.87,5.87,0,0,0-.59.05l-.23,0a3.06,3.06,0,0,0-.45.06,27.92,27.92,0,0,0-3.64.75c-.57.15-1.15.32-1.7.5-.81.25-1.61.52-2.36.77l-.89.31a28,28,0,0,1-5,1.42,5.25,5.25,0,0,1-2.15-.08,4.61,4.61,0,0,1-1-.42c-1.26-.73-1.45-1.83.9-3.2a8.26,8.26,0,0,1,7.25-.75l5-5.05a21.43,21.43,0,0,0-15.11.83l-4.17-2.4-5.68,3.28,4.17,2.4c-2,1.58-3.12,3.21-3.09,4.79v0c.05,1.61,1.22,3.15,3.69,4.58,5.49,3.17,10.92,2.12,15.88.51,4.62-1.5,8-3.28,10.65-1.74,1.66,1,1.16,2.12-.7,3.19a9.16,9.16,0,0,1-7.94.47l-5.33,5.28a20.06,20.06,0,0,0,2.95.87,19.15,19.15,0,0,0,5.13.37,23.56,23.56,0,0,0,8.05-2l4.17,2.41,5.63-3.25Z" style="fill:#fff"></path></g><polygon points="289.93 441.14 289.93 445.58 294.11 447.99 294.11 443.55 289.93 441.14" style="fill:#15C9C7"></polygon><polygon points="289.93 441.14 289.93 445.58 294.11 447.99 294.11 443.55 289.93 441.14" style="opacity:0.45"></polygon></g></g></svg>